<mxfile host="app.diagrams.net" modified="2024-06-17T09:03:49.814Z" agent="Mozilla/5.0 (Macintosh; Intel Mac OS X 10_15_7) AppleWebKit/605.1.15 (KHTML, like Gecko) Version/17.4.1 Safari/605.1.15" etag="zxl7jKpcqeDYP7REGNri" version="24.5.4" type="device" pages="4">
  <diagram name="lfsr" id="r8IcsSmUMxf61ysAO53N">
    <mxGraphModel dx="1816" dy="638" grid="1" gridSize="10" guides="1" tooltips="1" connect="1" arrows="1" fold="1" page="1" pageScale="1" pageWidth="827" pageHeight="1169" math="0" shadow="0">
      <root>
        <mxCell id="0" />
        <mxCell id="1" parent="0" />
        <mxCell id="3sXbqQcIOcx9sYsn2AGF-1" value="" style="shape=offPageConnector;whiteSpace=wrap;html=1;rotation=-90;fillColor=#f8cecc;strokeColor=#b85450;" vertex="1" parent="1">
          <mxGeometry x="10" y="230" width="40" height="60" as="geometry" />
        </mxCell>
        <mxCell id="3sXbqQcIOcx9sYsn2AGF-71" value="" style="edgeStyle=orthogonalEdgeStyle;rounded=0;orthogonalLoop=1;jettySize=auto;html=1;" edge="1" parent="1" source="3sXbqQcIOcx9sYsn2AGF-2" target="3sXbqQcIOcx9sYsn2AGF-9">
          <mxGeometry relative="1" as="geometry" />
        </mxCell>
        <mxCell id="3sXbqQcIOcx9sYsn2AGF-82" value="" style="edgeStyle=orthogonalEdgeStyle;rounded=0;orthogonalLoop=1;jettySize=auto;html=1;" edge="1" parent="1" source="3sXbqQcIOcx9sYsn2AGF-2" target="3sXbqQcIOcx9sYsn2AGF-9">
          <mxGeometry relative="1" as="geometry" />
        </mxCell>
        <mxCell id="3sXbqQcIOcx9sYsn2AGF-2" value="clk" style="text;html=1;align=center;verticalAlign=middle;whiteSpace=wrap;rounded=0;" vertex="1" parent="1">
          <mxGeometry x="-10" y="245" width="60" height="30" as="geometry" />
        </mxCell>
        <mxCell id="3sXbqQcIOcx9sYsn2AGF-11" style="edgeStyle=orthogonalEdgeStyle;rounded=0;orthogonalLoop=1;jettySize=auto;html=1;" edge="1" parent="1" source="3sXbqQcIOcx9sYsn2AGF-3" target="3sXbqQcIOcx9sYsn2AGF-10">
          <mxGeometry relative="1" as="geometry" />
        </mxCell>
        <mxCell id="3sXbqQcIOcx9sYsn2AGF-3" value="" style="shape=offPageConnector;whiteSpace=wrap;html=1;rotation=-90;fillColor=#f8cecc;strokeColor=#b85450;" vertex="1" parent="1">
          <mxGeometry x="10" y="310" width="40" height="60" as="geometry" />
        </mxCell>
        <mxCell id="3sXbqQcIOcx9sYsn2AGF-4" value="rst" style="text;html=1;align=center;verticalAlign=middle;whiteSpace=wrap;rounded=0;" vertex="1" parent="1">
          <mxGeometry x="-10" y="325" width="60" height="30" as="geometry" />
        </mxCell>
        <mxCell id="3sXbqQcIOcx9sYsn2AGF-5" value="" style="whiteSpace=wrap;html=1;aspect=fixed;fillColor=#d5e8d4;strokeColor=#82b366;" vertex="1" parent="1">
          <mxGeometry x="160" y="280" width="80" height="80" as="geometry" />
        </mxCell>
        <mxCell id="3sXbqQcIOcx9sYsn2AGF-7" style="edgeStyle=orthogonalEdgeStyle;rounded=0;orthogonalLoop=1;jettySize=auto;html=1;entryX=-0.017;entryY=0.3;entryDx=0;entryDy=0;entryPerimeter=0;" edge="1" parent="1" source="3sXbqQcIOcx9sYsn2AGF-1" target="3sXbqQcIOcx9sYsn2AGF-5">
          <mxGeometry relative="1" as="geometry" />
        </mxCell>
        <mxCell id="3sXbqQcIOcx9sYsn2AGF-8" value="" style="triangle;whiteSpace=wrap;html=1;fillColor=#d5e8d4;strokeColor=#82b366;" vertex="1" parent="1">
          <mxGeometry x="160" y="290" width="20" height="30" as="geometry" />
        </mxCell>
        <mxCell id="3sXbqQcIOcx9sYsn2AGF-9" value="C" style="text;html=1;align=center;verticalAlign=middle;whiteSpace=wrap;rounded=0;" vertex="1" parent="1">
          <mxGeometry x="147.5" y="290" width="45" height="30" as="geometry" />
        </mxCell>
        <mxCell id="3sXbqQcIOcx9sYsn2AGF-10" value="D" style="text;html=1;align=center;verticalAlign=middle;whiteSpace=wrap;rounded=0;" vertex="1" parent="1">
          <mxGeometry x="160" y="320" width="20" height="30" as="geometry" />
        </mxCell>
        <mxCell id="3sXbqQcIOcx9sYsn2AGF-12" value="Q" style="text;html=1;align=center;verticalAlign=middle;whiteSpace=wrap;rounded=0;" vertex="1" parent="1">
          <mxGeometry x="220" y="305" width="10" height="35" as="geometry" />
        </mxCell>
        <mxCell id="3sXbqQcIOcx9sYsn2AGF-13" value="rst_delay_reg" style="text;html=1;align=center;verticalAlign=middle;whiteSpace=wrap;rounded=0;" vertex="1" parent="1">
          <mxGeometry x="180" y="250" width="60" height="30" as="geometry" />
        </mxCell>
        <mxCell id="3sXbqQcIOcx9sYsn2AGF-14" value="3" style="triangle;whiteSpace=wrap;html=1;" vertex="1" parent="1">
          <mxGeometry x="80" y="430" width="10" height="20" as="geometry" />
        </mxCell>
        <mxCell id="3sXbqQcIOcx9sYsn2AGF-15" value="5" style="triangle;whiteSpace=wrap;html=1;" vertex="1" parent="1">
          <mxGeometry x="80" y="470" width="10" height="20" as="geometry" />
        </mxCell>
        <mxCell id="3sXbqQcIOcx9sYsn2AGF-21" style="edgeStyle=orthogonalEdgeStyle;rounded=0;orthogonalLoop=1;jettySize=auto;html=1;" edge="1" parent="1" source="3sXbqQcIOcx9sYsn2AGF-16">
          <mxGeometry relative="1" as="geometry">
            <mxPoint x="310" y="460" as="targetPoint" />
          </mxGeometry>
        </mxCell>
        <mxCell id="3sXbqQcIOcx9sYsn2AGF-16" value="=1" style="whiteSpace=wrap;html=1;aspect=fixed;fillColor=#dae8fc;strokeColor=#6c8ebf;" vertex="1" parent="1">
          <mxGeometry x="140" y="430" width="60" height="60" as="geometry" />
        </mxCell>
        <mxCell id="3sXbqQcIOcx9sYsn2AGF-17" style="edgeStyle=orthogonalEdgeStyle;rounded=0;orthogonalLoop=1;jettySize=auto;html=1;entryX=-0.011;entryY=0.161;entryDx=0;entryDy=0;entryPerimeter=0;" edge="1" parent="1" source="3sXbqQcIOcx9sYsn2AGF-14" target="3sXbqQcIOcx9sYsn2AGF-16">
          <mxGeometry relative="1" as="geometry" />
        </mxCell>
        <mxCell id="3sXbqQcIOcx9sYsn2AGF-18" style="edgeStyle=orthogonalEdgeStyle;rounded=0;orthogonalLoop=1;jettySize=auto;html=1;exitX=1;exitY=0.5;exitDx=0;exitDy=0;entryX=-0.006;entryY=0.839;entryDx=0;entryDy=0;entryPerimeter=0;" edge="1" parent="1" source="3sXbqQcIOcx9sYsn2AGF-15" target="3sXbqQcIOcx9sYsn2AGF-16">
          <mxGeometry relative="1" as="geometry" />
        </mxCell>
        <mxCell id="3sXbqQcIOcx9sYsn2AGF-19" value="" style="endArrow=none;html=1;rounded=0;entryX=0.008;entryY=0.158;entryDx=0;entryDy=0;entryPerimeter=0;" edge="1" parent="1" target="3sXbqQcIOcx9sYsn2AGF-15">
          <mxGeometry width="50" height="50" relative="1" as="geometry">
            <mxPoint x="80" y="450" as="sourcePoint" />
            <mxPoint x="250" y="360" as="targetPoint" />
          </mxGeometry>
        </mxCell>
        <mxCell id="3sXbqQcIOcx9sYsn2AGF-20" value="=1" style="whiteSpace=wrap;html=1;aspect=fixed;fillColor=#dae8fc;strokeColor=#6c8ebf;" vertex="1" parent="1">
          <mxGeometry x="310" y="450" width="60" height="60" as="geometry" />
        </mxCell>
        <mxCell id="3sXbqQcIOcx9sYsn2AGF-22" value="7" style="triangle;whiteSpace=wrap;html=1;" vertex="1" parent="1">
          <mxGeometry x="270" y="490" width="10" height="20" as="geometry" />
        </mxCell>
        <mxCell id="3sXbqQcIOcx9sYsn2AGF-23" style="edgeStyle=orthogonalEdgeStyle;rounded=0;orthogonalLoop=1;jettySize=auto;html=1;entryX=0.003;entryY=0.82;entryDx=0;entryDy=0;entryPerimeter=0;" edge="1" parent="1" source="3sXbqQcIOcx9sYsn2AGF-22" target="3sXbqQcIOcx9sYsn2AGF-20">
          <mxGeometry relative="1" as="geometry" />
        </mxCell>
        <mxCell id="3sXbqQcIOcx9sYsn2AGF-24" value="=1" style="whiteSpace=wrap;html=1;aspect=fixed;fillColor=#dae8fc;strokeColor=#6c8ebf;" vertex="1" parent="1">
          <mxGeometry x="470" y="470" width="60" height="60" as="geometry" />
        </mxCell>
        <mxCell id="3sXbqQcIOcx9sYsn2AGF-25" style="edgeStyle=orthogonalEdgeStyle;rounded=0;orthogonalLoop=1;jettySize=auto;html=1;entryX=0;entryY=0.167;entryDx=0;entryDy=0;entryPerimeter=0;" edge="1" parent="1" source="3sXbqQcIOcx9sYsn2AGF-20" target="3sXbqQcIOcx9sYsn2AGF-24">
          <mxGeometry relative="1" as="geometry" />
        </mxCell>
        <mxCell id="3sXbqQcIOcx9sYsn2AGF-26" value="0" style="triangle;whiteSpace=wrap;html=1;" vertex="1" parent="1">
          <mxGeometry x="430" y="510" width="10" height="20" as="geometry" />
        </mxCell>
        <mxCell id="3sXbqQcIOcx9sYsn2AGF-27" style="edgeStyle=orthogonalEdgeStyle;rounded=0;orthogonalLoop=1;jettySize=auto;html=1;entryX=-0.01;entryY=0.82;entryDx=0;entryDy=0;entryPerimeter=0;" edge="1" parent="1" source="3sXbqQcIOcx9sYsn2AGF-26" target="3sXbqQcIOcx9sYsn2AGF-24">
          <mxGeometry relative="1" as="geometry" />
        </mxCell>
        <mxCell id="3sXbqQcIOcx9sYsn2AGF-28" value="" style="endArrow=none;html=1;rounded=0;exitX=0;exitY=1.064;exitDx=0;exitDy=0;exitPerimeter=0;" edge="1" parent="1" source="3sXbqQcIOcx9sYsn2AGF-15">
          <mxGeometry width="50" height="50" relative="1" as="geometry">
            <mxPoint x="310" y="420" as="sourcePoint" />
            <mxPoint x="80" y="500" as="targetPoint" />
            <Array as="points">
              <mxPoint x="80" y="490" />
            </Array>
          </mxGeometry>
        </mxCell>
        <mxCell id="3sXbqQcIOcx9sYsn2AGF-29" value="" style="endArrow=none;html=1;rounded=0;entryX=0;entryY=0.5;entryDx=0;entryDy=0;" edge="1" parent="1" target="3sXbqQcIOcx9sYsn2AGF-22">
          <mxGeometry width="50" height="50" relative="1" as="geometry">
            <mxPoint x="80" y="500" as="sourcePoint" />
            <mxPoint x="320" y="390" as="targetPoint" />
          </mxGeometry>
        </mxCell>
        <mxCell id="3sXbqQcIOcx9sYsn2AGF-30" value="" style="endArrow=none;html=1;rounded=0;" edge="1" parent="1">
          <mxGeometry width="50" height="50" relative="1" as="geometry">
            <mxPoint x="240" y="500" as="sourcePoint" />
            <mxPoint x="240" y="520" as="targetPoint" />
          </mxGeometry>
        </mxCell>
        <mxCell id="3sXbqQcIOcx9sYsn2AGF-31" value="" style="endArrow=none;html=1;rounded=0;entryX=0;entryY=0.5;entryDx=0;entryDy=0;" edge="1" parent="1" target="3sXbqQcIOcx9sYsn2AGF-26">
          <mxGeometry width="50" height="50" relative="1" as="geometry">
            <mxPoint x="240" y="520" as="sourcePoint" />
            <mxPoint x="320" y="390" as="targetPoint" />
          </mxGeometry>
        </mxCell>
        <mxCell id="3sXbqQcIOcx9sYsn2AGF-32" value="" style="whiteSpace=wrap;html=1;aspect=fixed;fillColor=#d5e8d4;strokeColor=#82b366;" vertex="1" parent="1">
          <mxGeometry x="445" y="280" width="80" height="80" as="geometry" />
        </mxCell>
        <mxCell id="3sXbqQcIOcx9sYsn2AGF-33" value="" style="triangle;whiteSpace=wrap;html=1;fillColor=#d5e8d4;strokeColor=#82b366;" vertex="1" parent="1">
          <mxGeometry x="445" y="290" width="20" height="30" as="geometry" />
        </mxCell>
        <mxCell id="3sXbqQcIOcx9sYsn2AGF-34" value="D" style="text;html=1;align=center;verticalAlign=middle;whiteSpace=wrap;rounded=0;" vertex="1" parent="1">
          <mxGeometry x="445" y="320" width="20" height="30" as="geometry" />
        </mxCell>
        <mxCell id="3sXbqQcIOcx9sYsn2AGF-35" value="Q" style="text;html=1;align=center;verticalAlign=middle;whiteSpace=wrap;rounded=0;" vertex="1" parent="1">
          <mxGeometry x="505" y="305" width="10" height="30" as="geometry" />
        </mxCell>
        <mxCell id="3sXbqQcIOcx9sYsn2AGF-36" value="C" style="text;html=1;align=center;verticalAlign=middle;whiteSpace=wrap;rounded=0;" vertex="1" parent="1">
          <mxGeometry x="445" y="295" width="15" height="20" as="geometry" />
        </mxCell>
        <mxCell id="3sXbqQcIOcx9sYsn2AGF-37" value="" style="endArrow=none;html=1;rounded=0;" edge="1" parent="1">
          <mxGeometry width="50" height="50" relative="1" as="geometry">
            <mxPoint x="400" y="520" as="sourcePoint" />
            <mxPoint x="400" y="600" as="targetPoint" />
          </mxGeometry>
        </mxCell>
        <mxCell id="3sXbqQcIOcx9sYsn2AGF-38" value="" style="endArrow=none;html=1;rounded=0;" edge="1" parent="1">
          <mxGeometry width="50" height="50" relative="1" as="geometry">
            <mxPoint x="400" y="600" as="sourcePoint" />
            <mxPoint x="600" y="600" as="targetPoint" />
          </mxGeometry>
        </mxCell>
        <mxCell id="3sXbqQcIOcx9sYsn2AGF-39" value="" style="endArrow=none;html=1;rounded=0;" edge="1" parent="1">
          <mxGeometry width="50" height="50" relative="1" as="geometry">
            <mxPoint x="600" y="320" as="sourcePoint" />
            <mxPoint x="600" y="600" as="targetPoint" />
          </mxGeometry>
        </mxCell>
        <mxCell id="3sXbqQcIOcx9sYsn2AGF-40" value="" style="endArrow=none;html=1;rounded=0;exitX=1;exitY=0.5;exitDx=0;exitDy=0;" edge="1" parent="1" source="3sXbqQcIOcx9sYsn2AGF-32">
          <mxGeometry width="50" height="50" relative="1" as="geometry">
            <mxPoint x="530" y="320" as="sourcePoint" />
            <mxPoint x="600" y="320" as="targetPoint" />
          </mxGeometry>
        </mxCell>
        <mxCell id="3sXbqQcIOcx9sYsn2AGF-41" value="" style="endArrow=none;html=1;rounded=0;" edge="1" parent="1">
          <mxGeometry width="50" height="50" relative="1" as="geometry">
            <mxPoint x="640" y="320" as="sourcePoint" />
            <mxPoint x="590" y="320" as="targetPoint" />
          </mxGeometry>
        </mxCell>
        <mxCell id="3sXbqQcIOcx9sYsn2AGF-42" value="" style="shape=offPageConnector;whiteSpace=wrap;html=1;rotation=-90;fillColor=#f8cecc;strokeColor=#b85450;" vertex="1" parent="1">
          <mxGeometry x="650" y="290" width="40" height="60" as="geometry" />
        </mxCell>
        <mxCell id="3sXbqQcIOcx9sYsn2AGF-44" value="y_bo[7:0]" style="text;html=1;align=center;verticalAlign=middle;whiteSpace=wrap;rounded=0;" vertex="1" parent="1">
          <mxGeometry x="640" y="305" width="60" height="30" as="geometry" />
        </mxCell>
        <mxCell id="3sXbqQcIOcx9sYsn2AGF-45" value="&amp;amp;" style="rounded=0;whiteSpace=wrap;html=1;fillColor=#dae8fc;strokeColor=#6c8ebf;" vertex="1" parent="1">
          <mxGeometry x="300" y="355" width="70" height="60" as="geometry" />
        </mxCell>
        <mxCell id="3sXbqQcIOcx9sYsn2AGF-48" value="" style="endArrow=none;html=1;rounded=0;" edge="1" parent="1">
          <mxGeometry width="50" height="50" relative="1" as="geometry">
            <mxPoint x="280" y="360" as="sourcePoint" />
            <mxPoint x="290" y="360" as="targetPoint" />
          </mxGeometry>
        </mxCell>
        <mxCell id="3sXbqQcIOcx9sYsn2AGF-50" value="" style="ellipse;whiteSpace=wrap;html=1;aspect=fixed;" vertex="1" parent="1">
          <mxGeometry x="290" y="355" width="10" height="10" as="geometry" />
        </mxCell>
        <mxCell id="3sXbqQcIOcx9sYsn2AGF-53" value="" style="endArrow=none;html=1;rounded=0;exitX=1.018;exitY=0.507;exitDx=0;exitDy=0;exitPerimeter=0;" edge="1" parent="1" source="3sXbqQcIOcx9sYsn2AGF-5">
          <mxGeometry width="50" height="50" relative="1" as="geometry">
            <mxPoint x="250" y="360" as="sourcePoint" />
            <mxPoint x="280" y="320" as="targetPoint" />
          </mxGeometry>
        </mxCell>
        <mxCell id="3sXbqQcIOcx9sYsn2AGF-54" value="" style="endArrow=none;html=1;rounded=0;" edge="1" parent="1">
          <mxGeometry width="50" height="50" relative="1" as="geometry">
            <mxPoint x="280" y="360" as="sourcePoint" />
            <mxPoint x="280" y="320" as="targetPoint" />
          </mxGeometry>
        </mxCell>
        <mxCell id="3sXbqQcIOcx9sYsn2AGF-58" value="" style="endArrow=none;html=1;rounded=0;" edge="1" parent="1">
          <mxGeometry width="50" height="50" relative="1" as="geometry">
            <mxPoint x="280" y="360" as="sourcePoint" />
            <mxPoint x="280" y="360" as="targetPoint" />
          </mxGeometry>
        </mxCell>
        <mxCell id="3sXbqQcIOcx9sYsn2AGF-59" value="" style="endArrow=none;html=1;rounded=0;" edge="1" parent="1">
          <mxGeometry width="50" height="50" relative="1" as="geometry">
            <mxPoint x="110" y="340" as="sourcePoint" />
            <mxPoint x="110" y="410" as="targetPoint" />
          </mxGeometry>
        </mxCell>
        <mxCell id="3sXbqQcIOcx9sYsn2AGF-60" value="" style="endArrow=none;html=1;rounded=0;entryX=0;entryY=0.917;entryDx=0;entryDy=0;entryPerimeter=0;" edge="1" parent="1" target="3sXbqQcIOcx9sYsn2AGF-45">
          <mxGeometry width="50" height="50" relative="1" as="geometry">
            <mxPoint x="110" y="410" as="sourcePoint" />
            <mxPoint x="230" y="330" as="targetPoint" />
          </mxGeometry>
        </mxCell>
        <mxCell id="3sXbqQcIOcx9sYsn2AGF-61" value="" style="endArrow=classic;html=1;rounded=0;exitX=1.049;exitY=0.503;exitDx=0;exitDy=0;entryX=0.5;entryY=1;entryDx=0;entryDy=0;exitPerimeter=0;" edge="1" parent="1" source="3sXbqQcIOcx9sYsn2AGF-45" target="3sXbqQcIOcx9sYsn2AGF-32">
          <mxGeometry width="50" height="50" relative="1" as="geometry">
            <mxPoint x="460" y="470" as="sourcePoint" />
            <mxPoint x="510" y="420" as="targetPoint" />
            <Array as="points">
              <mxPoint x="485" y="385" />
            </Array>
          </mxGeometry>
        </mxCell>
        <mxCell id="3sXbqQcIOcx9sYsn2AGF-62" value="" style="endArrow=none;html=1;rounded=0;exitX=1;exitY=0.5;exitDx=0;exitDy=0;" edge="1" parent="1" source="3sXbqQcIOcx9sYsn2AGF-24">
          <mxGeometry width="50" height="50" relative="1" as="geometry">
            <mxPoint x="440" y="440" as="sourcePoint" />
            <mxPoint x="560" y="500" as="targetPoint" />
          </mxGeometry>
        </mxCell>
        <mxCell id="3sXbqQcIOcx9sYsn2AGF-63" value="" style="endArrow=none;html=1;rounded=0;" edge="1" parent="1">
          <mxGeometry width="50" height="50" relative="1" as="geometry">
            <mxPoint x="560" y="420" as="sourcePoint" />
            <mxPoint x="560" y="500" as="targetPoint" />
          </mxGeometry>
        </mxCell>
        <mxCell id="3sXbqQcIOcx9sYsn2AGF-64" value="" style="endArrow=none;html=1;rounded=0;" edge="1" parent="1">
          <mxGeometry width="50" height="50" relative="1" as="geometry">
            <mxPoint x="400" y="420" as="sourcePoint" />
            <mxPoint x="560" y="420" as="targetPoint" />
          </mxGeometry>
        </mxCell>
        <mxCell id="3sXbqQcIOcx9sYsn2AGF-65" value="" style="endArrow=none;html=1;rounded=0;" edge="1" parent="1">
          <mxGeometry width="50" height="50" relative="1" as="geometry">
            <mxPoint x="400" y="420" as="sourcePoint" />
            <mxPoint x="400" y="340" as="targetPoint" />
          </mxGeometry>
        </mxCell>
        <mxCell id="3sXbqQcIOcx9sYsn2AGF-66" value="" style="endArrow=none;html=1;rounded=0;entryX=-0.067;entryY=0.667;entryDx=0;entryDy=0;entryPerimeter=0;" edge="1" parent="1" target="3sXbqQcIOcx9sYsn2AGF-34">
          <mxGeometry width="50" height="50" relative="1" as="geometry">
            <mxPoint x="400" y="340" as="sourcePoint" />
            <mxPoint x="490" y="390" as="targetPoint" />
          </mxGeometry>
        </mxCell>
        <mxCell id="3sXbqQcIOcx9sYsn2AGF-67" value="" style="endArrow=none;html=1;rounded=0;" edge="1" parent="1">
          <mxGeometry width="50" height="50" relative="1" as="geometry">
            <mxPoint x="110" y="260" as="sourcePoint" />
            <mxPoint x="410" y="260" as="targetPoint" />
          </mxGeometry>
        </mxCell>
        <mxCell id="3sXbqQcIOcx9sYsn2AGF-68" value="" style="endArrow=none;html=1;rounded=0;" edge="1" parent="1">
          <mxGeometry width="50" height="50" relative="1" as="geometry">
            <mxPoint x="410" y="300" as="sourcePoint" />
            <mxPoint x="410" y="260" as="targetPoint" />
          </mxGeometry>
        </mxCell>
        <mxCell id="3sXbqQcIOcx9sYsn2AGF-69" value="" style="endArrow=none;html=1;rounded=0;exitX=0;exitY=0.25;exitDx=0;exitDy=0;" edge="1" parent="1" source="3sXbqQcIOcx9sYsn2AGF-36">
          <mxGeometry width="50" height="50" relative="1" as="geometry">
            <mxPoint x="250" y="400" as="sourcePoint" />
            <mxPoint x="410" y="300" as="targetPoint" />
          </mxGeometry>
        </mxCell>
        <mxCell id="3sXbqQcIOcx9sYsn2AGF-72" value="I0" style="text;html=1;align=center;verticalAlign=middle;whiteSpace=wrap;rounded=0;" vertex="1" parent="1">
          <mxGeometry x="90" y="415" width="60" height="30" as="geometry" />
        </mxCell>
        <mxCell id="3sXbqQcIOcx9sYsn2AGF-73" value="I1" style="text;html=1;align=center;verticalAlign=middle;whiteSpace=wrap;rounded=0;" vertex="1" parent="1">
          <mxGeometry x="90" y="460" width="60" height="30" as="geometry" />
        </mxCell>
        <mxCell id="3sXbqQcIOcx9sYsn2AGF-74" value="I0" style="text;html=1;align=center;verticalAlign=middle;whiteSpace=wrap;rounded=0;" vertex="1" parent="1">
          <mxGeometry x="260" y="440" width="60" height="30" as="geometry" />
        </mxCell>
        <mxCell id="3sXbqQcIOcx9sYsn2AGF-75" value="I1" style="text;html=1;align=center;verticalAlign=middle;whiteSpace=wrap;rounded=0;" vertex="1" parent="1">
          <mxGeometry x="260" y="480" width="60" height="30" as="geometry" />
        </mxCell>
        <mxCell id="3sXbqQcIOcx9sYsn2AGF-78" value="I0" style="text;html=1;align=center;verticalAlign=middle;whiteSpace=wrap;rounded=0;" vertex="1" parent="1">
          <mxGeometry x="422.5" y="460" width="60" height="30" as="geometry" />
        </mxCell>
        <mxCell id="3sXbqQcIOcx9sYsn2AGF-79" value="I1" style="text;html=1;align=center;verticalAlign=middle;whiteSpace=wrap;rounded=0;" vertex="1" parent="1">
          <mxGeometry x="422.5" y="500" width="60" height="30" as="geometry" />
        </mxCell>
        <mxCell id="3sXbqQcIOcx9sYsn2AGF-80" value="I0" style="text;html=1;align=center;verticalAlign=middle;whiteSpace=wrap;rounded=0;" vertex="1" parent="1">
          <mxGeometry x="260" y="335" width="60" height="30" as="geometry" />
        </mxCell>
        <mxCell id="3sXbqQcIOcx9sYsn2AGF-81" value="I1" style="text;html=1;align=center;verticalAlign=middle;whiteSpace=wrap;rounded=0;" vertex="1" parent="1">
          <mxGeometry x="250" y="385" width="60" height="30" as="geometry" />
        </mxCell>
      </root>
    </mxGraphModel>
  </diagram>
  <diagram id="Jt-KTZzjsxzgsB-EO88w" name="lfsr2">
    <mxGraphModel dx="1646" dy="529" grid="1" gridSize="10" guides="1" tooltips="1" connect="1" arrows="1" fold="1" page="1" pageScale="1" pageWidth="827" pageHeight="1169" math="0" shadow="0">
      <root>
        <mxCell id="0" />
        <mxCell id="1" parent="0" />
        <mxCell id="FXydcSbLLGvlZS1ASKcE-1" value="" style="shape=offPageConnector;whiteSpace=wrap;html=1;rotation=-90;fillColor=#f8cecc;strokeColor=#b85450;" vertex="1" parent="1">
          <mxGeometry x="10" y="230" width="40" height="60" as="geometry" />
        </mxCell>
        <mxCell id="FXydcSbLLGvlZS1ASKcE-2" value="" style="edgeStyle=orthogonalEdgeStyle;rounded=0;orthogonalLoop=1;jettySize=auto;html=1;" edge="1" parent="1" source="FXydcSbLLGvlZS1ASKcE-4" target="FXydcSbLLGvlZS1ASKcE-11">
          <mxGeometry relative="1" as="geometry" />
        </mxCell>
        <mxCell id="FXydcSbLLGvlZS1ASKcE-3" value="" style="edgeStyle=orthogonalEdgeStyle;rounded=0;orthogonalLoop=1;jettySize=auto;html=1;" edge="1" parent="1" source="FXydcSbLLGvlZS1ASKcE-4" target="FXydcSbLLGvlZS1ASKcE-11">
          <mxGeometry relative="1" as="geometry" />
        </mxCell>
        <mxCell id="FXydcSbLLGvlZS1ASKcE-4" value="clk" style="text;html=1;align=center;verticalAlign=middle;whiteSpace=wrap;rounded=0;" vertex="1" parent="1">
          <mxGeometry x="-10" y="245" width="60" height="30" as="geometry" />
        </mxCell>
        <mxCell id="FXydcSbLLGvlZS1ASKcE-5" style="edgeStyle=orthogonalEdgeStyle;rounded=0;orthogonalLoop=1;jettySize=auto;html=1;" edge="1" parent="1" source="FXydcSbLLGvlZS1ASKcE-6" target="FXydcSbLLGvlZS1ASKcE-12">
          <mxGeometry relative="1" as="geometry" />
        </mxCell>
        <mxCell id="FXydcSbLLGvlZS1ASKcE-6" value="" style="shape=offPageConnector;whiteSpace=wrap;html=1;rotation=-90;fillColor=#f8cecc;strokeColor=#b85450;" vertex="1" parent="1">
          <mxGeometry x="10" y="310" width="40" height="60" as="geometry" />
        </mxCell>
        <mxCell id="FXydcSbLLGvlZS1ASKcE-7" value="rst" style="text;html=1;align=center;verticalAlign=middle;whiteSpace=wrap;rounded=0;" vertex="1" parent="1">
          <mxGeometry x="-10" y="325" width="60" height="30" as="geometry" />
        </mxCell>
        <mxCell id="FXydcSbLLGvlZS1ASKcE-8" value="" style="whiteSpace=wrap;html=1;aspect=fixed;fillColor=#d5e8d4;strokeColor=#82b366;" vertex="1" parent="1">
          <mxGeometry x="160" y="280" width="80" height="80" as="geometry" />
        </mxCell>
        <mxCell id="FXydcSbLLGvlZS1ASKcE-9" style="edgeStyle=orthogonalEdgeStyle;rounded=0;orthogonalLoop=1;jettySize=auto;html=1;entryX=-0.017;entryY=0.3;entryDx=0;entryDy=0;entryPerimeter=0;" edge="1" parent="1" source="FXydcSbLLGvlZS1ASKcE-1" target="FXydcSbLLGvlZS1ASKcE-8">
          <mxGeometry relative="1" as="geometry" />
        </mxCell>
        <mxCell id="FXydcSbLLGvlZS1ASKcE-10" value="" style="triangle;whiteSpace=wrap;html=1;fillColor=#d5e8d4;strokeColor=#82b366;" vertex="1" parent="1">
          <mxGeometry x="160" y="290" width="20" height="30" as="geometry" />
        </mxCell>
        <mxCell id="FXydcSbLLGvlZS1ASKcE-11" value="C" style="text;html=1;align=center;verticalAlign=middle;whiteSpace=wrap;rounded=0;" vertex="1" parent="1">
          <mxGeometry x="147.5" y="290" width="45" height="30" as="geometry" />
        </mxCell>
        <mxCell id="FXydcSbLLGvlZS1ASKcE-12" value="D" style="text;html=1;align=center;verticalAlign=middle;whiteSpace=wrap;rounded=0;" vertex="1" parent="1">
          <mxGeometry x="160" y="320" width="20" height="30" as="geometry" />
        </mxCell>
        <mxCell id="FXydcSbLLGvlZS1ASKcE-13" value="Q" style="text;html=1;align=center;verticalAlign=middle;whiteSpace=wrap;rounded=0;" vertex="1" parent="1">
          <mxGeometry x="220" y="305" width="10" height="35" as="geometry" />
        </mxCell>
        <mxCell id="FXydcSbLLGvlZS1ASKcE-14" value="rst_delay_reg" style="text;html=1;align=center;verticalAlign=middle;whiteSpace=wrap;rounded=0;" vertex="1" parent="1">
          <mxGeometry x="180" y="250" width="60" height="30" as="geometry" />
        </mxCell>
        <mxCell id="FXydcSbLLGvlZS1ASKcE-15" value="4" style="triangle;whiteSpace=wrap;html=1;" vertex="1" parent="1">
          <mxGeometry x="80" y="430" width="10" height="20" as="geometry" />
        </mxCell>
        <mxCell id="FXydcSbLLGvlZS1ASKcE-16" value="6" style="triangle;whiteSpace=wrap;html=1;" vertex="1" parent="1">
          <mxGeometry x="80" y="470" width="10" height="20" as="geometry" />
        </mxCell>
        <mxCell id="FXydcSbLLGvlZS1ASKcE-17" style="edgeStyle=orthogonalEdgeStyle;rounded=0;orthogonalLoop=1;jettySize=auto;html=1;" edge="1" parent="1" source="FXydcSbLLGvlZS1ASKcE-18">
          <mxGeometry relative="1" as="geometry">
            <mxPoint x="310" y="460" as="targetPoint" />
          </mxGeometry>
        </mxCell>
        <mxCell id="FXydcSbLLGvlZS1ASKcE-18" value="=1" style="whiteSpace=wrap;html=1;aspect=fixed;fillColor=#dae8fc;strokeColor=#6c8ebf;" vertex="1" parent="1">
          <mxGeometry x="140" y="430" width="60" height="60" as="geometry" />
        </mxCell>
        <mxCell id="FXydcSbLLGvlZS1ASKcE-19" style="edgeStyle=orthogonalEdgeStyle;rounded=0;orthogonalLoop=1;jettySize=auto;html=1;entryX=-0.011;entryY=0.161;entryDx=0;entryDy=0;entryPerimeter=0;" edge="1" parent="1" source="FXydcSbLLGvlZS1ASKcE-15" target="FXydcSbLLGvlZS1ASKcE-18">
          <mxGeometry relative="1" as="geometry" />
        </mxCell>
        <mxCell id="FXydcSbLLGvlZS1ASKcE-20" style="edgeStyle=orthogonalEdgeStyle;rounded=0;orthogonalLoop=1;jettySize=auto;html=1;exitX=1;exitY=0.5;exitDx=0;exitDy=0;entryX=-0.006;entryY=0.839;entryDx=0;entryDy=0;entryPerimeter=0;" edge="1" parent="1" source="FXydcSbLLGvlZS1ASKcE-16" target="FXydcSbLLGvlZS1ASKcE-18">
          <mxGeometry relative="1" as="geometry" />
        </mxCell>
        <mxCell id="FXydcSbLLGvlZS1ASKcE-21" value="" style="endArrow=none;html=1;rounded=0;entryX=0.008;entryY=0.158;entryDx=0;entryDy=0;entryPerimeter=0;" edge="1" parent="1" target="FXydcSbLLGvlZS1ASKcE-16">
          <mxGeometry width="50" height="50" relative="1" as="geometry">
            <mxPoint x="80" y="450" as="sourcePoint" />
            <mxPoint x="250" y="360" as="targetPoint" />
          </mxGeometry>
        </mxCell>
        <mxCell id="FXydcSbLLGvlZS1ASKcE-22" value="=1" style="whiteSpace=wrap;html=1;aspect=fixed;fillColor=#dae8fc;strokeColor=#6c8ebf;" vertex="1" parent="1">
          <mxGeometry x="310" y="450" width="60" height="60" as="geometry" />
        </mxCell>
        <mxCell id="FXydcSbLLGvlZS1ASKcE-23" value="7" style="triangle;whiteSpace=wrap;html=1;" vertex="1" parent="1">
          <mxGeometry x="270" y="490" width="10" height="20" as="geometry" />
        </mxCell>
        <mxCell id="FXydcSbLLGvlZS1ASKcE-24" style="edgeStyle=orthogonalEdgeStyle;rounded=0;orthogonalLoop=1;jettySize=auto;html=1;entryX=0.003;entryY=0.82;entryDx=0;entryDy=0;entryPerimeter=0;" edge="1" parent="1" source="FXydcSbLLGvlZS1ASKcE-23" target="FXydcSbLLGvlZS1ASKcE-22">
          <mxGeometry relative="1" as="geometry" />
        </mxCell>
        <mxCell id="FXydcSbLLGvlZS1ASKcE-25" value="=1" style="whiteSpace=wrap;html=1;aspect=fixed;fillColor=#dae8fc;strokeColor=#6c8ebf;" vertex="1" parent="1">
          <mxGeometry x="470" y="470" width="60" height="60" as="geometry" />
        </mxCell>
        <mxCell id="FXydcSbLLGvlZS1ASKcE-26" style="edgeStyle=orthogonalEdgeStyle;rounded=0;orthogonalLoop=1;jettySize=auto;html=1;entryX=0;entryY=0.167;entryDx=0;entryDy=0;entryPerimeter=0;" edge="1" parent="1" source="FXydcSbLLGvlZS1ASKcE-22" target="FXydcSbLLGvlZS1ASKcE-25">
          <mxGeometry relative="1" as="geometry" />
        </mxCell>
        <mxCell id="FXydcSbLLGvlZS1ASKcE-27" value="0" style="triangle;whiteSpace=wrap;html=1;" vertex="1" parent="1">
          <mxGeometry x="430" y="510" width="10" height="20" as="geometry" />
        </mxCell>
        <mxCell id="FXydcSbLLGvlZS1ASKcE-28" style="edgeStyle=orthogonalEdgeStyle;rounded=0;orthogonalLoop=1;jettySize=auto;html=1;entryX=-0.01;entryY=0.82;entryDx=0;entryDy=0;entryPerimeter=0;" edge="1" parent="1" source="FXydcSbLLGvlZS1ASKcE-27" target="FXydcSbLLGvlZS1ASKcE-25">
          <mxGeometry relative="1" as="geometry" />
        </mxCell>
        <mxCell id="FXydcSbLLGvlZS1ASKcE-29" value="" style="endArrow=none;html=1;rounded=0;exitX=0;exitY=1.064;exitDx=0;exitDy=0;exitPerimeter=0;" edge="1" parent="1" source="FXydcSbLLGvlZS1ASKcE-16">
          <mxGeometry width="50" height="50" relative="1" as="geometry">
            <mxPoint x="310" y="420" as="sourcePoint" />
            <mxPoint x="80" y="500" as="targetPoint" />
            <Array as="points">
              <mxPoint x="80" y="490" />
            </Array>
          </mxGeometry>
        </mxCell>
        <mxCell id="FXydcSbLLGvlZS1ASKcE-30" value="" style="endArrow=none;html=1;rounded=0;entryX=0;entryY=0.5;entryDx=0;entryDy=0;" edge="1" parent="1" target="FXydcSbLLGvlZS1ASKcE-23">
          <mxGeometry width="50" height="50" relative="1" as="geometry">
            <mxPoint x="80" y="500" as="sourcePoint" />
            <mxPoint x="320" y="390" as="targetPoint" />
          </mxGeometry>
        </mxCell>
        <mxCell id="FXydcSbLLGvlZS1ASKcE-31" value="" style="endArrow=none;html=1;rounded=0;" edge="1" parent="1">
          <mxGeometry width="50" height="50" relative="1" as="geometry">
            <mxPoint x="240" y="500" as="sourcePoint" />
            <mxPoint x="240" y="520" as="targetPoint" />
          </mxGeometry>
        </mxCell>
        <mxCell id="FXydcSbLLGvlZS1ASKcE-32" value="" style="endArrow=none;html=1;rounded=0;entryX=0;entryY=0.5;entryDx=0;entryDy=0;" edge="1" parent="1" target="FXydcSbLLGvlZS1ASKcE-27">
          <mxGeometry width="50" height="50" relative="1" as="geometry">
            <mxPoint x="240" y="520" as="sourcePoint" />
            <mxPoint x="320" y="390" as="targetPoint" />
          </mxGeometry>
        </mxCell>
        <mxCell id="FXydcSbLLGvlZS1ASKcE-33" value="" style="whiteSpace=wrap;html=1;aspect=fixed;fillColor=#d5e8d4;strokeColor=#82b366;" vertex="1" parent="1">
          <mxGeometry x="445" y="280" width="80" height="80" as="geometry" />
        </mxCell>
        <mxCell id="FXydcSbLLGvlZS1ASKcE-34" value="" style="triangle;whiteSpace=wrap;html=1;fillColor=#d5e8d4;strokeColor=#82b366;" vertex="1" parent="1">
          <mxGeometry x="445" y="290" width="20" height="30" as="geometry" />
        </mxCell>
        <mxCell id="FXydcSbLLGvlZS1ASKcE-35" value="D" style="text;html=1;align=center;verticalAlign=middle;whiteSpace=wrap;rounded=0;" vertex="1" parent="1">
          <mxGeometry x="445" y="320" width="20" height="30" as="geometry" />
        </mxCell>
        <mxCell id="FXydcSbLLGvlZS1ASKcE-36" value="Q" style="text;html=1;align=center;verticalAlign=middle;whiteSpace=wrap;rounded=0;" vertex="1" parent="1">
          <mxGeometry x="505" y="305" width="10" height="30" as="geometry" />
        </mxCell>
        <mxCell id="FXydcSbLLGvlZS1ASKcE-37" value="C" style="text;html=1;align=center;verticalAlign=middle;whiteSpace=wrap;rounded=0;" vertex="1" parent="1">
          <mxGeometry x="445" y="295" width="15" height="20" as="geometry" />
        </mxCell>
        <mxCell id="FXydcSbLLGvlZS1ASKcE-38" value="" style="endArrow=none;html=1;rounded=0;" edge="1" parent="1">
          <mxGeometry width="50" height="50" relative="1" as="geometry">
            <mxPoint x="400" y="520" as="sourcePoint" />
            <mxPoint x="400" y="600" as="targetPoint" />
          </mxGeometry>
        </mxCell>
        <mxCell id="FXydcSbLLGvlZS1ASKcE-39" value="" style="endArrow=none;html=1;rounded=0;" edge="1" parent="1">
          <mxGeometry width="50" height="50" relative="1" as="geometry">
            <mxPoint x="400" y="600" as="sourcePoint" />
            <mxPoint x="600" y="600" as="targetPoint" />
          </mxGeometry>
        </mxCell>
        <mxCell id="FXydcSbLLGvlZS1ASKcE-40" value="" style="endArrow=none;html=1;rounded=0;" edge="1" parent="1">
          <mxGeometry width="50" height="50" relative="1" as="geometry">
            <mxPoint x="600" y="320" as="sourcePoint" />
            <mxPoint x="600" y="600" as="targetPoint" />
          </mxGeometry>
        </mxCell>
        <mxCell id="FXydcSbLLGvlZS1ASKcE-41" value="" style="endArrow=none;html=1;rounded=0;exitX=1;exitY=0.5;exitDx=0;exitDy=0;" edge="1" parent="1" source="FXydcSbLLGvlZS1ASKcE-33">
          <mxGeometry width="50" height="50" relative="1" as="geometry">
            <mxPoint x="530" y="320" as="sourcePoint" />
            <mxPoint x="600" y="320" as="targetPoint" />
          </mxGeometry>
        </mxCell>
        <mxCell id="FXydcSbLLGvlZS1ASKcE-42" value="" style="endArrow=none;html=1;rounded=0;" edge="1" parent="1">
          <mxGeometry width="50" height="50" relative="1" as="geometry">
            <mxPoint x="640" y="320" as="sourcePoint" />
            <mxPoint x="590" y="320" as="targetPoint" />
          </mxGeometry>
        </mxCell>
        <mxCell id="FXydcSbLLGvlZS1ASKcE-43" value="" style="shape=offPageConnector;whiteSpace=wrap;html=1;rotation=-90;fillColor=#f8cecc;strokeColor=#b85450;" vertex="1" parent="1">
          <mxGeometry x="650" y="290" width="40" height="60" as="geometry" />
        </mxCell>
        <mxCell id="FXydcSbLLGvlZS1ASKcE-44" value="y_bo[7:0]" style="text;html=1;align=center;verticalAlign=middle;whiteSpace=wrap;rounded=0;" vertex="1" parent="1">
          <mxGeometry x="640" y="305" width="60" height="30" as="geometry" />
        </mxCell>
        <mxCell id="FXydcSbLLGvlZS1ASKcE-45" value="&amp;amp;" style="rounded=0;whiteSpace=wrap;html=1;fillColor=#dae8fc;strokeColor=#6c8ebf;" vertex="1" parent="1">
          <mxGeometry x="300" y="355" width="70" height="60" as="geometry" />
        </mxCell>
        <mxCell id="FXydcSbLLGvlZS1ASKcE-46" value="" style="endArrow=none;html=1;rounded=0;" edge="1" parent="1">
          <mxGeometry width="50" height="50" relative="1" as="geometry">
            <mxPoint x="280" y="360" as="sourcePoint" />
            <mxPoint x="290" y="360" as="targetPoint" />
          </mxGeometry>
        </mxCell>
        <mxCell id="FXydcSbLLGvlZS1ASKcE-47" value="" style="ellipse;whiteSpace=wrap;html=1;aspect=fixed;" vertex="1" parent="1">
          <mxGeometry x="290" y="355" width="10" height="10" as="geometry" />
        </mxCell>
        <mxCell id="FXydcSbLLGvlZS1ASKcE-48" value="" style="endArrow=none;html=1;rounded=0;exitX=1.018;exitY=0.507;exitDx=0;exitDy=0;exitPerimeter=0;" edge="1" parent="1" source="FXydcSbLLGvlZS1ASKcE-8">
          <mxGeometry width="50" height="50" relative="1" as="geometry">
            <mxPoint x="250" y="360" as="sourcePoint" />
            <mxPoint x="280" y="320" as="targetPoint" />
          </mxGeometry>
        </mxCell>
        <mxCell id="FXydcSbLLGvlZS1ASKcE-49" value="" style="endArrow=none;html=1;rounded=0;" edge="1" parent="1">
          <mxGeometry width="50" height="50" relative="1" as="geometry">
            <mxPoint x="280" y="360" as="sourcePoint" />
            <mxPoint x="280" y="320" as="targetPoint" />
          </mxGeometry>
        </mxCell>
        <mxCell id="FXydcSbLLGvlZS1ASKcE-50" value="" style="endArrow=none;html=1;rounded=0;" edge="1" parent="1">
          <mxGeometry width="50" height="50" relative="1" as="geometry">
            <mxPoint x="280" y="360" as="sourcePoint" />
            <mxPoint x="280" y="360" as="targetPoint" />
          </mxGeometry>
        </mxCell>
        <mxCell id="FXydcSbLLGvlZS1ASKcE-51" value="" style="endArrow=none;html=1;rounded=0;" edge="1" parent="1">
          <mxGeometry width="50" height="50" relative="1" as="geometry">
            <mxPoint x="110" y="340" as="sourcePoint" />
            <mxPoint x="110" y="410" as="targetPoint" />
          </mxGeometry>
        </mxCell>
        <mxCell id="FXydcSbLLGvlZS1ASKcE-52" value="" style="endArrow=none;html=1;rounded=0;entryX=0;entryY=0.917;entryDx=0;entryDy=0;entryPerimeter=0;" edge="1" parent="1" target="FXydcSbLLGvlZS1ASKcE-45">
          <mxGeometry width="50" height="50" relative="1" as="geometry">
            <mxPoint x="110" y="410" as="sourcePoint" />
            <mxPoint x="230" y="330" as="targetPoint" />
          </mxGeometry>
        </mxCell>
        <mxCell id="FXydcSbLLGvlZS1ASKcE-53" value="" style="endArrow=classic;html=1;rounded=0;exitX=1.049;exitY=0.503;exitDx=0;exitDy=0;entryX=0.5;entryY=1;entryDx=0;entryDy=0;exitPerimeter=0;" edge="1" parent="1" source="FXydcSbLLGvlZS1ASKcE-45" target="FXydcSbLLGvlZS1ASKcE-33">
          <mxGeometry width="50" height="50" relative="1" as="geometry">
            <mxPoint x="460" y="470" as="sourcePoint" />
            <mxPoint x="510" y="420" as="targetPoint" />
            <Array as="points">
              <mxPoint x="485" y="385" />
            </Array>
          </mxGeometry>
        </mxCell>
        <mxCell id="FXydcSbLLGvlZS1ASKcE-54" value="" style="endArrow=none;html=1;rounded=0;exitX=1;exitY=0.5;exitDx=0;exitDy=0;" edge="1" parent="1" source="FXydcSbLLGvlZS1ASKcE-25">
          <mxGeometry width="50" height="50" relative="1" as="geometry">
            <mxPoint x="440" y="440" as="sourcePoint" />
            <mxPoint x="560" y="500" as="targetPoint" />
          </mxGeometry>
        </mxCell>
        <mxCell id="FXydcSbLLGvlZS1ASKcE-55" value="" style="endArrow=none;html=1;rounded=0;" edge="1" parent="1">
          <mxGeometry width="50" height="50" relative="1" as="geometry">
            <mxPoint x="560" y="420" as="sourcePoint" />
            <mxPoint x="560" y="500" as="targetPoint" />
          </mxGeometry>
        </mxCell>
        <mxCell id="FXydcSbLLGvlZS1ASKcE-56" value="" style="endArrow=none;html=1;rounded=0;" edge="1" parent="1">
          <mxGeometry width="50" height="50" relative="1" as="geometry">
            <mxPoint x="400" y="420" as="sourcePoint" />
            <mxPoint x="560" y="420" as="targetPoint" />
          </mxGeometry>
        </mxCell>
        <mxCell id="FXydcSbLLGvlZS1ASKcE-57" value="" style="endArrow=none;html=1;rounded=0;" edge="1" parent="1">
          <mxGeometry width="50" height="50" relative="1" as="geometry">
            <mxPoint x="400" y="420" as="sourcePoint" />
            <mxPoint x="400" y="340" as="targetPoint" />
          </mxGeometry>
        </mxCell>
        <mxCell id="FXydcSbLLGvlZS1ASKcE-58" value="" style="endArrow=none;html=1;rounded=0;entryX=-0.067;entryY=0.667;entryDx=0;entryDy=0;entryPerimeter=0;" edge="1" parent="1" target="FXydcSbLLGvlZS1ASKcE-35">
          <mxGeometry width="50" height="50" relative="1" as="geometry">
            <mxPoint x="400" y="340" as="sourcePoint" />
            <mxPoint x="490" y="390" as="targetPoint" />
          </mxGeometry>
        </mxCell>
        <mxCell id="FXydcSbLLGvlZS1ASKcE-59" value="" style="endArrow=none;html=1;rounded=0;" edge="1" parent="1">
          <mxGeometry width="50" height="50" relative="1" as="geometry">
            <mxPoint x="110" y="260" as="sourcePoint" />
            <mxPoint x="410" y="260" as="targetPoint" />
          </mxGeometry>
        </mxCell>
        <mxCell id="FXydcSbLLGvlZS1ASKcE-60" value="" style="endArrow=none;html=1;rounded=0;" edge="1" parent="1">
          <mxGeometry width="50" height="50" relative="1" as="geometry">
            <mxPoint x="410" y="300" as="sourcePoint" />
            <mxPoint x="410" y="260" as="targetPoint" />
          </mxGeometry>
        </mxCell>
        <mxCell id="FXydcSbLLGvlZS1ASKcE-61" value="" style="endArrow=none;html=1;rounded=0;exitX=0;exitY=0.25;exitDx=0;exitDy=0;" edge="1" parent="1" source="FXydcSbLLGvlZS1ASKcE-37">
          <mxGeometry width="50" height="50" relative="1" as="geometry">
            <mxPoint x="250" y="400" as="sourcePoint" />
            <mxPoint x="410" y="300" as="targetPoint" />
          </mxGeometry>
        </mxCell>
        <mxCell id="FXydcSbLLGvlZS1ASKcE-62" value="I0" style="text;html=1;align=center;verticalAlign=middle;whiteSpace=wrap;rounded=0;" vertex="1" parent="1">
          <mxGeometry x="90" y="415" width="60" height="30" as="geometry" />
        </mxCell>
        <mxCell id="FXydcSbLLGvlZS1ASKcE-63" value="I1" style="text;html=1;align=center;verticalAlign=middle;whiteSpace=wrap;rounded=0;" vertex="1" parent="1">
          <mxGeometry x="90" y="460" width="60" height="30" as="geometry" />
        </mxCell>
        <mxCell id="FXydcSbLLGvlZS1ASKcE-64" value="I0" style="text;html=1;align=center;verticalAlign=middle;whiteSpace=wrap;rounded=0;" vertex="1" parent="1">
          <mxGeometry x="260" y="440" width="60" height="30" as="geometry" />
        </mxCell>
        <mxCell id="FXydcSbLLGvlZS1ASKcE-65" value="I1" style="text;html=1;align=center;verticalAlign=middle;whiteSpace=wrap;rounded=0;" vertex="1" parent="1">
          <mxGeometry x="260" y="480" width="60" height="30" as="geometry" />
        </mxCell>
        <mxCell id="FXydcSbLLGvlZS1ASKcE-66" value="I0" style="text;html=1;align=center;verticalAlign=middle;whiteSpace=wrap;rounded=0;" vertex="1" parent="1">
          <mxGeometry x="422.5" y="460" width="60" height="30" as="geometry" />
        </mxCell>
        <mxCell id="FXydcSbLLGvlZS1ASKcE-67" value="I1" style="text;html=1;align=center;verticalAlign=middle;whiteSpace=wrap;rounded=0;" vertex="1" parent="1">
          <mxGeometry x="422.5" y="500" width="60" height="30" as="geometry" />
        </mxCell>
        <mxCell id="FXydcSbLLGvlZS1ASKcE-68" value="I0" style="text;html=1;align=center;verticalAlign=middle;whiteSpace=wrap;rounded=0;" vertex="1" parent="1">
          <mxGeometry x="260" y="335" width="60" height="30" as="geometry" />
        </mxCell>
        <mxCell id="FXydcSbLLGvlZS1ASKcE-69" value="I1" style="text;html=1;align=center;verticalAlign=middle;whiteSpace=wrap;rounded=0;" vertex="1" parent="1">
          <mxGeometry x="250" y="385" width="60" height="30" as="geometry" />
        </mxCell>
      </root>
    </mxGraphModel>
  </diagram>
  <diagram id="nywOGR7dxS7wiezvh3QB" name="crc">
    <mxGraphModel dx="3217" dy="1542" grid="1" gridSize="10" guides="1" tooltips="1" connect="1" arrows="1" fold="1" page="1" pageScale="1" pageWidth="827" pageHeight="1169" math="0" shadow="0">
      <root>
        <mxCell id="0" />
        <mxCell id="1" parent="0" />
        <mxCell id="ROkhfVyDKHd-P5Vk7A-k-1" value="" style="shape=offPageConnector;whiteSpace=wrap;html=1;rotation=-90;fillColor=#f8cecc;strokeColor=#b85450;" parent="1" vertex="1">
          <mxGeometry x="10" y="540" width="40" height="60" as="geometry" />
        </mxCell>
        <mxCell id="ROkhfVyDKHd-P5Vk7A-k-2" value="rst" style="text;html=1;align=center;verticalAlign=middle;whiteSpace=wrap;rounded=0;" parent="1" vertex="1">
          <mxGeometry x="-10" y="555" width="60" height="30" as="geometry" />
        </mxCell>
        <mxCell id="ROkhfVyDKHd-P5Vk7A-k-3" value="" style="shape=offPageConnector;whiteSpace=wrap;html=1;rotation=-90;fillColor=#f8cecc;strokeColor=#b85450;" parent="1" vertex="1">
          <mxGeometry x="10" y="230" width="40" height="60" as="geometry" />
        </mxCell>
        <mxCell id="ROkhfVyDKHd-P5Vk7A-k-4" value="a" style="text;html=1;align=center;verticalAlign=middle;whiteSpace=wrap;rounded=0;" parent="1" vertex="1">
          <mxGeometry y="245" width="60" height="30" as="geometry" />
        </mxCell>
        <mxCell id="ROkhfVyDKHd-P5Vk7A-k-5" value="=1" style="rounded=0;whiteSpace=wrap;html=1;" parent="1" vertex="1">
          <mxGeometry x="160" y="230" width="100" height="90" as="geometry" />
        </mxCell>
        <mxCell id="ROkhfVyDKHd-P5Vk7A-k-6" style="edgeStyle=orthogonalEdgeStyle;rounded=0;orthogonalLoop=1;jettySize=auto;html=1;entryX=-0.037;entryY=0.335;entryDx=0;entryDy=0;entryPerimeter=0;" parent="1" source="ROkhfVyDKHd-P5Vk7A-k-4" target="ROkhfVyDKHd-P5Vk7A-k-5" edge="1">
          <mxGeometry relative="1" as="geometry" />
        </mxCell>
        <mxCell id="ROkhfVyDKHd-P5Vk7A-k-7" value="=1" style="rounded=0;whiteSpace=wrap;html=1;" parent="1" vertex="1">
          <mxGeometry x="450" y="140" width="100" height="90" as="geometry" />
        </mxCell>
        <mxCell id="ROkhfVyDKHd-P5Vk7A-k-8" style="edgeStyle=orthogonalEdgeStyle;rounded=0;orthogonalLoop=1;jettySize=auto;html=1;entryX=0.006;entryY=0.7;entryDx=0;entryDy=0;entryPerimeter=0;" parent="1" source="ROkhfVyDKHd-P5Vk7A-k-5" target="ROkhfVyDKHd-P5Vk7A-k-7" edge="1">
          <mxGeometry relative="1" as="geometry" />
        </mxCell>
        <mxCell id="ROkhfVyDKHd-P5Vk7A-k-9" value="8&#39;b10111000" style="ellipse;whiteSpace=wrap;html=1;" parent="1" vertex="1">
          <mxGeometry x="220" y="140" width="90" height="50" as="geometry" />
        </mxCell>
        <mxCell id="ROkhfVyDKHd-P5Vk7A-k-10" style="edgeStyle=orthogonalEdgeStyle;rounded=0;orthogonalLoop=1;jettySize=auto;html=1;entryX=0;entryY=0.25;entryDx=0;entryDy=0;" parent="1" source="ROkhfVyDKHd-P5Vk7A-k-9" target="ROkhfVyDKHd-P5Vk7A-k-7" edge="1">
          <mxGeometry relative="1" as="geometry">
            <Array as="points">
              <mxPoint x="385" y="163" />
            </Array>
          </mxGeometry>
        </mxCell>
        <mxCell id="ROkhfVyDKHd-P5Vk7A-k-12" value="" style="shape=trapezoid;perimeter=trapezoidPerimeter;whiteSpace=wrap;html=1;fixedSize=1;rotation=90;" parent="1" vertex="1">
          <mxGeometry x="640" y="270" width="120" height="50" as="geometry" />
        </mxCell>
        <mxCell id="ROkhfVyDKHd-P5Vk7A-k-13" style="edgeStyle=orthogonalEdgeStyle;rounded=0;orthogonalLoop=1;jettySize=auto;html=1;entryX=0.324;entryY=1.02;entryDx=0;entryDy=0;entryPerimeter=0;" parent="1" source="ROkhfVyDKHd-P5Vk7A-k-7" target="ROkhfVyDKHd-P5Vk7A-k-12" edge="1">
          <mxGeometry relative="1" as="geometry">
            <Array as="points">
              <mxPoint x="660" y="185" />
              <mxPoint x="660" y="274" />
            </Array>
          </mxGeometry>
        </mxCell>
        <mxCell id="ROkhfVyDKHd-P5Vk7A-k-14" value="I0" style="text;html=1;align=center;verticalAlign=middle;whiteSpace=wrap;rounded=0;" parent="1" vertex="1">
          <mxGeometry x="100" y="230" width="60" height="30" as="geometry" />
        </mxCell>
        <mxCell id="ROkhfVyDKHd-P5Vk7A-k-15" value="I0" style="text;html=1;align=center;verticalAlign=middle;whiteSpace=wrap;rounded=0;" parent="1" vertex="1">
          <mxGeometry x="390" y="140" width="60" height="30" as="geometry" />
        </mxCell>
        <mxCell id="ROkhfVyDKHd-P5Vk7A-k-16" value="I1" style="text;html=1;align=center;verticalAlign=middle;whiteSpace=wrap;rounded=0;" parent="1" vertex="1">
          <mxGeometry x="390" y="180" width="60" height="30" as="geometry" />
        </mxCell>
        <mxCell id="ROkhfVyDKHd-P5Vk7A-k-17" value="O" style="text;html=1;align=center;verticalAlign=middle;whiteSpace=wrap;rounded=0;" parent="1" vertex="1">
          <mxGeometry x="250" y="245" width="60" height="30" as="geometry" />
        </mxCell>
        <mxCell id="ROkhfVyDKHd-P5Vk7A-k-18" value="O" style="text;html=1;align=center;verticalAlign=middle;whiteSpace=wrap;rounded=0;" parent="1" vertex="1">
          <mxGeometry x="540" y="160" width="60" height="30" as="geometry" />
        </mxCell>
        <mxCell id="ROkhfVyDKHd-P5Vk7A-k-19" value="I0" style="text;html=1;align=center;verticalAlign=middle;whiteSpace=wrap;rounded=0;" parent="1" vertex="1">
          <mxGeometry x="620" y="245" width="60" height="30" as="geometry" />
        </mxCell>
        <mxCell id="ROkhfVyDKHd-P5Vk7A-k-20" value="" style="endArrow=classic;html=1;rounded=0;exitX=0.181;exitY=1.038;exitDx=0;exitDy=0;exitPerimeter=0;entryX=0.943;entryY=0.563;entryDx=0;entryDy=0;entryPerimeter=0;" parent="1" edge="1">
          <mxGeometry width="50" height="50" relative="1" as="geometry">
            <mxPoint x="259.9999999999999" y="275.14" as="sourcePoint" />
            <mxPoint x="695.9899999999999" y="347.15999999999985" as="targetPoint" />
            <Array as="points">
              <mxPoint x="399.14" y="275" />
              <mxPoint x="399.14" y="439" />
              <mxPoint x="696.14" y="439" />
            </Array>
          </mxGeometry>
        </mxCell>
        <mxCell id="ROkhfVyDKHd-P5Vk7A-k-23" value="MUX" style="text;html=1;align=center;verticalAlign=middle;whiteSpace=wrap;rounded=0;" parent="1" vertex="1">
          <mxGeometry x="670" y="275" width="60" height="30" as="geometry" />
        </mxCell>
        <mxCell id="ROkhfVyDKHd-P5Vk7A-k-24" value="" style="endArrow=classic;html=1;rounded=0;entryX=0.71;entryY=0.997;entryDx=0;entryDy=0;entryPerimeter=0;" parent="1" target="ROkhfVyDKHd-P5Vk7A-k-12" edge="1">
          <mxGeometry width="50" height="50" relative="1" as="geometry">
            <mxPoint x="400" y="320" as="sourcePoint" />
            <mxPoint x="670" y="320" as="targetPoint" />
          </mxGeometry>
        </mxCell>
        <mxCell id="ROkhfVyDKHd-P5Vk7A-k-25" value="I1" style="text;html=1;align=center;verticalAlign=middle;whiteSpace=wrap;rounded=0;" parent="1" vertex="1">
          <mxGeometry x="620" y="300" width="60" height="30" as="geometry" />
        </mxCell>
        <mxCell id="ROkhfVyDKHd-P5Vk7A-k-26" value="7" style="text;html=1;align=center;verticalAlign=middle;whiteSpace=wrap;rounded=0;" parent="1" vertex="1">
          <mxGeometry x="670" y="340" width="60" height="50" as="geometry" />
        </mxCell>
        <mxCell id="ROkhfVyDKHd-P5Vk7A-k-28" value="" style="endArrow=none;html=1;rounded=0;" parent="1" edge="1">
          <mxGeometry width="50" height="50" relative="1" as="geometry">
            <mxPoint x="760" y="520" as="sourcePoint" />
            <mxPoint x="90" y="260" as="targetPoint" />
            <Array as="points">
              <mxPoint x="90" y="520" />
            </Array>
          </mxGeometry>
        </mxCell>
        <mxCell id="ROkhfVyDKHd-P5Vk7A-k-172" style="edgeStyle=orthogonalEdgeStyle;rounded=0;orthogonalLoop=1;jettySize=auto;html=1;entryX=0;entryY=0.25;entryDx=0;entryDy=0;" parent="1" source="ROkhfVyDKHd-P5Vk7A-k-29" target="ROkhfVyDKHd-P5Vk7A-k-170" edge="1">
          <mxGeometry relative="1" as="geometry">
            <Array as="points">
              <mxPoint x="1110" y="175" />
              <mxPoint x="1110" y="113" />
            </Array>
          </mxGeometry>
        </mxCell>
        <mxCell id="ROkhfVyDKHd-P5Vk7A-k-29" value="=1" style="rounded=0;whiteSpace=wrap;html=1;" parent="1" vertex="1">
          <mxGeometry x="970" y="130" width="100" height="90" as="geometry" />
        </mxCell>
        <mxCell id="ROkhfVyDKHd-P5Vk7A-k-30" value="" style="endArrow=none;html=1;rounded=0;entryX=0;entryY=0.25;entryDx=0;entryDy=0;" parent="1" target="ROkhfVyDKHd-P5Vk7A-k-29" edge="1">
          <mxGeometry width="50" height="50" relative="1" as="geometry">
            <mxPoint x="760" y="520" as="sourcePoint" />
            <mxPoint x="910" y="370" as="targetPoint" />
            <Array as="points">
              <mxPoint x="760" y="153" />
            </Array>
          </mxGeometry>
        </mxCell>
        <mxCell id="ROkhfVyDKHd-P5Vk7A-k-31" value="" style="endArrow=none;html=1;rounded=0;entryX=-0.026;entryY=0.647;entryDx=0;entryDy=0;entryPerimeter=0;" parent="1" target="ROkhfVyDKHd-P5Vk7A-k-29" edge="1">
          <mxGeometry width="50" height="50" relative="1" as="geometry">
            <mxPoint x="790" y="300" as="sourcePoint" />
            <mxPoint x="910" y="370" as="targetPoint" />
            <Array as="points">
              <mxPoint x="790" y="190" />
            </Array>
          </mxGeometry>
        </mxCell>
        <mxCell id="ROkhfVyDKHd-P5Vk7A-k-32" value="" style="endArrow=none;html=1;rounded=0;" parent="1" edge="1">
          <mxGeometry width="50" height="50" relative="1" as="geometry">
            <mxPoint x="730" y="300" as="sourcePoint" />
            <mxPoint x="790" y="300" as="targetPoint" />
          </mxGeometry>
        </mxCell>
        <mxCell id="ROkhfVyDKHd-P5Vk7A-k-33" value="I0" style="text;html=1;align=center;verticalAlign=middle;whiteSpace=wrap;rounded=0;" parent="1" vertex="1">
          <mxGeometry x="910" y="120" width="60" height="30" as="geometry" />
        </mxCell>
        <mxCell id="ROkhfVyDKHd-P5Vk7A-k-34" value="I1" style="text;html=1;align=center;verticalAlign=middle;whiteSpace=wrap;rounded=0;" parent="1" vertex="1">
          <mxGeometry x="910" y="160" width="60" height="30" as="geometry" />
        </mxCell>
        <mxCell id="ROkhfVyDKHd-P5Vk7A-k-178" style="edgeStyle=orthogonalEdgeStyle;rounded=0;orthogonalLoop=1;jettySize=auto;html=1;entryX=0.25;entryY=1;entryDx=0;entryDy=0;" parent="1" source="ROkhfVyDKHd-P5Vk7A-k-170" target="ROkhfVyDKHd-P5Vk7A-k-175" edge="1">
          <mxGeometry relative="1" as="geometry" />
        </mxCell>
        <mxCell id="ROkhfVyDKHd-P5Vk7A-k-170" value="=1" style="rounded=0;whiteSpace=wrap;html=1;" parent="1" vertex="1">
          <mxGeometry x="1290" y="90" width="100" height="90" as="geometry" />
        </mxCell>
        <mxCell id="ROkhfVyDKHd-P5Vk7A-k-174" style="edgeStyle=orthogonalEdgeStyle;rounded=0;orthogonalLoop=1;jettySize=auto;html=1;entryX=0;entryY=0.75;entryDx=0;entryDy=0;" parent="1" source="ROkhfVyDKHd-P5Vk7A-k-173" target="ROkhfVyDKHd-P5Vk7A-k-170" edge="1">
          <mxGeometry relative="1" as="geometry" />
        </mxCell>
        <mxCell id="ROkhfVyDKHd-P5Vk7A-k-173" value="8&#39;b10111000" style="ellipse;whiteSpace=wrap;html=1;" parent="1" vertex="1">
          <mxGeometry x="1130" y="130" width="90" height="50" as="geometry" />
        </mxCell>
        <mxCell id="ROkhfVyDKHd-P5Vk7A-k-175" value="" style="shape=trapezoid;perimeter=trapezoidPerimeter;whiteSpace=wrap;html=1;fixedSize=1;rotation=90;" parent="1" vertex="1">
          <mxGeometry x="1420" y="255" width="120" height="50" as="geometry" />
        </mxCell>
        <mxCell id="ROkhfVyDKHd-P5Vk7A-k-176" value="MUX" style="text;html=1;align=center;verticalAlign=middle;whiteSpace=wrap;rounded=0;" parent="1" vertex="1">
          <mxGeometry x="1450" y="260" width="60" height="30" as="geometry" />
        </mxCell>
        <mxCell id="ROkhfVyDKHd-P5Vk7A-k-177" value="" style="endArrow=none;html=1;rounded=0;" parent="1" edge="1">
          <mxGeometry width="50" height="50" relative="1" as="geometry">
            <mxPoint x="1510" y="285" as="sourcePoint" />
            <mxPoint x="1570" y="285" as="targetPoint" />
          </mxGeometry>
        </mxCell>
        <mxCell id="ROkhfVyDKHd-P5Vk7A-k-179" value="" style="endArrow=classic;html=1;rounded=0;entryX=0.673;entryY=1.094;entryDx=0;entryDy=0;entryPerimeter=0;exitX=1;exitY=0.75;exitDx=0;exitDy=0;" parent="1" source="ROkhfVyDKHd-P5Vk7A-k-29" target="ROkhfVyDKHd-P5Vk7A-k-175" edge="1">
          <mxGeometry width="50" height="50" relative="1" as="geometry">
            <mxPoint x="870" y="300" as="sourcePoint" />
            <mxPoint x="920" y="250" as="targetPoint" />
            <Array as="points">
              <mxPoint x="1160" y="200" />
              <mxPoint x="1160" y="301" />
            </Array>
          </mxGeometry>
        </mxCell>
        <mxCell id="ROkhfVyDKHd-P5Vk7A-k-180" value="" style="endArrow=classic;html=1;rounded=0;entryX=1;entryY=0.5;entryDx=0;entryDy=0;" parent="1" target="ROkhfVyDKHd-P5Vk7A-k-175" edge="1">
          <mxGeometry width="50" height="50" relative="1" as="geometry">
            <mxPoint x="1160" y="280" as="sourcePoint" />
            <mxPoint x="880" y="280" as="targetPoint" />
            <Array as="points">
              <mxPoint x="1160" y="400" />
              <mxPoint x="1480" y="400" />
            </Array>
          </mxGeometry>
        </mxCell>
        <mxCell id="ROkhfVyDKHd-P5Vk7A-k-181" style="edgeStyle=orthogonalEdgeStyle;rounded=0;orthogonalLoop=1;jettySize=auto;html=1;entryX=0;entryY=0.25;entryDx=0;entryDy=0;" parent="1" source="ROkhfVyDKHd-P5Vk7A-k-182" target="ROkhfVyDKHd-P5Vk7A-k-189" edge="1">
          <mxGeometry relative="1" as="geometry">
            <Array as="points">
              <mxPoint x="1890" y="160" />
              <mxPoint x="1890" y="98" />
            </Array>
          </mxGeometry>
        </mxCell>
        <mxCell id="ROkhfVyDKHd-P5Vk7A-k-182" value="=1" style="rounded=0;whiteSpace=wrap;html=1;" parent="1" vertex="1">
          <mxGeometry x="1750" y="115" width="100" height="90" as="geometry" />
        </mxCell>
        <mxCell id="ROkhfVyDKHd-P5Vk7A-k-183" value="" style="endArrow=none;html=1;rounded=0;entryX=0;entryY=0.25;entryDx=0;entryDy=0;" parent="1" target="ROkhfVyDKHd-P5Vk7A-k-182" edge="1">
          <mxGeometry width="50" height="50" relative="1" as="geometry">
            <mxPoint x="1540" y="505" as="sourcePoint" />
            <mxPoint x="1690" y="355" as="targetPoint" />
            <Array as="points">
              <mxPoint x="1540" y="138" />
            </Array>
          </mxGeometry>
        </mxCell>
        <mxCell id="ROkhfVyDKHd-P5Vk7A-k-184" value="" style="endArrow=none;html=1;rounded=0;entryX=-0.026;entryY=0.647;entryDx=0;entryDy=0;entryPerimeter=0;" parent="1" target="ROkhfVyDKHd-P5Vk7A-k-182" edge="1">
          <mxGeometry width="50" height="50" relative="1" as="geometry">
            <mxPoint x="1570" y="285" as="sourcePoint" />
            <mxPoint x="1690" y="355" as="targetPoint" />
            <Array as="points">
              <mxPoint x="1570" y="175" />
            </Array>
          </mxGeometry>
        </mxCell>
        <mxCell id="ROkhfVyDKHd-P5Vk7A-k-185" value="" style="endArrow=none;html=1;rounded=0;" parent="1" edge="1">
          <mxGeometry width="50" height="50" relative="1" as="geometry">
            <mxPoint x="1510" y="285" as="sourcePoint" />
            <mxPoint x="1570" y="285" as="targetPoint" />
          </mxGeometry>
        </mxCell>
        <mxCell id="ROkhfVyDKHd-P5Vk7A-k-186" value="I0" style="text;html=1;align=center;verticalAlign=middle;whiteSpace=wrap;rounded=0;" parent="1" vertex="1">
          <mxGeometry x="1690" y="105" width="60" height="30" as="geometry" />
        </mxCell>
        <mxCell id="ROkhfVyDKHd-P5Vk7A-k-187" value="I1" style="text;html=1;align=center;verticalAlign=middle;whiteSpace=wrap;rounded=0;" parent="1" vertex="1">
          <mxGeometry x="1690" y="145" width="60" height="30" as="geometry" />
        </mxCell>
        <mxCell id="ROkhfVyDKHd-P5Vk7A-k-188" style="edgeStyle=orthogonalEdgeStyle;rounded=0;orthogonalLoop=1;jettySize=auto;html=1;entryX=0.25;entryY=1;entryDx=0;entryDy=0;" parent="1" source="ROkhfVyDKHd-P5Vk7A-k-189" target="ROkhfVyDKHd-P5Vk7A-k-192" edge="1">
          <mxGeometry relative="1" as="geometry" />
        </mxCell>
        <mxCell id="ROkhfVyDKHd-P5Vk7A-k-189" value="=1" style="rounded=0;whiteSpace=wrap;html=1;" parent="1" vertex="1">
          <mxGeometry x="2070" y="75" width="100" height="90" as="geometry" />
        </mxCell>
        <mxCell id="ROkhfVyDKHd-P5Vk7A-k-190" style="edgeStyle=orthogonalEdgeStyle;rounded=0;orthogonalLoop=1;jettySize=auto;html=1;entryX=0;entryY=0.75;entryDx=0;entryDy=0;" parent="1" source="ROkhfVyDKHd-P5Vk7A-k-191" target="ROkhfVyDKHd-P5Vk7A-k-189" edge="1">
          <mxGeometry relative="1" as="geometry" />
        </mxCell>
        <mxCell id="ROkhfVyDKHd-P5Vk7A-k-191" value="8&#39;b10111000" style="ellipse;whiteSpace=wrap;html=1;" parent="1" vertex="1">
          <mxGeometry x="1910" y="115" width="90" height="50" as="geometry" />
        </mxCell>
        <mxCell id="ROkhfVyDKHd-P5Vk7A-k-192" value="" style="shape=trapezoid;perimeter=trapezoidPerimeter;whiteSpace=wrap;html=1;fixedSize=1;rotation=90;" parent="1" vertex="1">
          <mxGeometry x="2200" y="240" width="120" height="50" as="geometry" />
        </mxCell>
        <mxCell id="ROkhfVyDKHd-P5Vk7A-k-193" value="MUX" style="text;html=1;align=center;verticalAlign=middle;whiteSpace=wrap;rounded=0;" parent="1" vertex="1">
          <mxGeometry x="2230" y="245" width="60" height="30" as="geometry" />
        </mxCell>
        <mxCell id="ROkhfVyDKHd-P5Vk7A-k-194" value="" style="endArrow=none;html=1;rounded=0;" parent="1" edge="1">
          <mxGeometry width="50" height="50" relative="1" as="geometry">
            <mxPoint x="2290" y="270" as="sourcePoint" />
            <mxPoint x="2350" y="270" as="targetPoint" />
          </mxGeometry>
        </mxCell>
        <mxCell id="ROkhfVyDKHd-P5Vk7A-k-195" value="" style="endArrow=classic;html=1;rounded=0;entryX=0.673;entryY=1.094;entryDx=0;entryDy=0;entryPerimeter=0;exitX=1;exitY=0.75;exitDx=0;exitDy=0;" parent="1" source="ROkhfVyDKHd-P5Vk7A-k-182" target="ROkhfVyDKHd-P5Vk7A-k-192" edge="1">
          <mxGeometry width="50" height="50" relative="1" as="geometry">
            <mxPoint x="1650" y="285" as="sourcePoint" />
            <mxPoint x="1700" y="235" as="targetPoint" />
            <Array as="points">
              <mxPoint x="1940" y="185" />
              <mxPoint x="1940" y="286" />
            </Array>
          </mxGeometry>
        </mxCell>
        <mxCell id="ROkhfVyDKHd-P5Vk7A-k-196" value="" style="endArrow=classic;html=1;rounded=0;entryX=1;entryY=0.5;entryDx=0;entryDy=0;" parent="1" target="ROkhfVyDKHd-P5Vk7A-k-192" edge="1">
          <mxGeometry width="50" height="50" relative="1" as="geometry">
            <mxPoint x="1940" y="265" as="sourcePoint" />
            <mxPoint x="1660" y="265" as="targetPoint" />
            <Array as="points">
              <mxPoint x="1940" y="385" />
              <mxPoint x="2260" y="385" />
            </Array>
          </mxGeometry>
        </mxCell>
        <mxCell id="ROkhfVyDKHd-P5Vk7A-k-197" value="" style="endArrow=none;html=1;rounded=0;" parent="1" edge="1">
          <mxGeometry width="50" height="50" relative="1" as="geometry">
            <mxPoint x="1540" y="500" as="sourcePoint" />
            <mxPoint x="760" y="500" as="targetPoint" />
          </mxGeometry>
        </mxCell>
        <mxCell id="ROkhfVyDKHd-P5Vk7A-k-198" style="edgeStyle=orthogonalEdgeStyle;rounded=0;orthogonalLoop=1;jettySize=auto;html=1;entryX=0;entryY=0.25;entryDx=0;entryDy=0;" parent="1" source="ROkhfVyDKHd-P5Vk7A-k-199" target="ROkhfVyDKHd-P5Vk7A-k-206" edge="1">
          <mxGeometry relative="1" as="geometry">
            <Array as="points">
              <mxPoint x="2670" y="145" />
              <mxPoint x="2670" y="83" />
            </Array>
          </mxGeometry>
        </mxCell>
        <mxCell id="ROkhfVyDKHd-P5Vk7A-k-199" value="=1" style="rounded=0;whiteSpace=wrap;html=1;" parent="1" vertex="1">
          <mxGeometry x="2530" y="100" width="100" height="90" as="geometry" />
        </mxCell>
        <mxCell id="ROkhfVyDKHd-P5Vk7A-k-200" value="" style="endArrow=none;html=1;rounded=0;entryX=0;entryY=0.25;entryDx=0;entryDy=0;" parent="1" target="ROkhfVyDKHd-P5Vk7A-k-199" edge="1">
          <mxGeometry width="50" height="50" relative="1" as="geometry">
            <mxPoint x="2320" y="490" as="sourcePoint" />
            <mxPoint x="2470" y="340" as="targetPoint" />
            <Array as="points">
              <mxPoint x="2320" y="123" />
            </Array>
          </mxGeometry>
        </mxCell>
        <mxCell id="ROkhfVyDKHd-P5Vk7A-k-201" value="" style="endArrow=none;html=1;rounded=0;entryX=-0.026;entryY=0.647;entryDx=0;entryDy=0;entryPerimeter=0;" parent="1" target="ROkhfVyDKHd-P5Vk7A-k-199" edge="1">
          <mxGeometry width="50" height="50" relative="1" as="geometry">
            <mxPoint x="2350" y="270" as="sourcePoint" />
            <mxPoint x="2470" y="340" as="targetPoint" />
            <Array as="points">
              <mxPoint x="2350" y="160" />
            </Array>
          </mxGeometry>
        </mxCell>
        <mxCell id="ROkhfVyDKHd-P5Vk7A-k-202" value="" style="endArrow=none;html=1;rounded=0;" parent="1" edge="1">
          <mxGeometry width="50" height="50" relative="1" as="geometry">
            <mxPoint x="2290" y="270" as="sourcePoint" />
            <mxPoint x="2350" y="270" as="targetPoint" />
          </mxGeometry>
        </mxCell>
        <mxCell id="ROkhfVyDKHd-P5Vk7A-k-203" value="I0" style="text;html=1;align=center;verticalAlign=middle;whiteSpace=wrap;rounded=0;" parent="1" vertex="1">
          <mxGeometry x="2470" y="90" width="60" height="30" as="geometry" />
        </mxCell>
        <mxCell id="ROkhfVyDKHd-P5Vk7A-k-204" value="I1" style="text;html=1;align=center;verticalAlign=middle;whiteSpace=wrap;rounded=0;" parent="1" vertex="1">
          <mxGeometry x="2470" y="130" width="60" height="30" as="geometry" />
        </mxCell>
        <mxCell id="ROkhfVyDKHd-P5Vk7A-k-205" style="edgeStyle=orthogonalEdgeStyle;rounded=0;orthogonalLoop=1;jettySize=auto;html=1;entryX=0.25;entryY=1;entryDx=0;entryDy=0;" parent="1" source="ROkhfVyDKHd-P5Vk7A-k-206" target="ROkhfVyDKHd-P5Vk7A-k-209" edge="1">
          <mxGeometry relative="1" as="geometry" />
        </mxCell>
        <mxCell id="ROkhfVyDKHd-P5Vk7A-k-206" value="=1" style="rounded=0;whiteSpace=wrap;html=1;" parent="1" vertex="1">
          <mxGeometry x="2850" y="60" width="100" height="90" as="geometry" />
        </mxCell>
        <mxCell id="ROkhfVyDKHd-P5Vk7A-k-207" style="edgeStyle=orthogonalEdgeStyle;rounded=0;orthogonalLoop=1;jettySize=auto;html=1;entryX=0;entryY=0.75;entryDx=0;entryDy=0;" parent="1" source="ROkhfVyDKHd-P5Vk7A-k-208" target="ROkhfVyDKHd-P5Vk7A-k-206" edge="1">
          <mxGeometry relative="1" as="geometry" />
        </mxCell>
        <mxCell id="ROkhfVyDKHd-P5Vk7A-k-208" value="8&#39;b10111000" style="ellipse;whiteSpace=wrap;html=1;" parent="1" vertex="1">
          <mxGeometry x="2690" y="100" width="90" height="50" as="geometry" />
        </mxCell>
        <mxCell id="ROkhfVyDKHd-P5Vk7A-k-209" value="" style="shape=trapezoid;perimeter=trapezoidPerimeter;whiteSpace=wrap;html=1;fixedSize=1;rotation=90;" parent="1" vertex="1">
          <mxGeometry x="2980" y="225" width="120" height="50" as="geometry" />
        </mxCell>
        <mxCell id="ROkhfVyDKHd-P5Vk7A-k-210" value="MUX" style="text;html=1;align=center;verticalAlign=middle;whiteSpace=wrap;rounded=0;" parent="1" vertex="1">
          <mxGeometry x="3010" y="230" width="60" height="30" as="geometry" />
        </mxCell>
        <mxCell id="ROkhfVyDKHd-P5Vk7A-k-211" value="" style="endArrow=none;html=1;rounded=0;" parent="1" edge="1">
          <mxGeometry width="50" height="50" relative="1" as="geometry">
            <mxPoint x="3070" y="255" as="sourcePoint" />
            <mxPoint x="3130" y="255" as="targetPoint" />
          </mxGeometry>
        </mxCell>
        <mxCell id="ROkhfVyDKHd-P5Vk7A-k-212" value="" style="endArrow=classic;html=1;rounded=0;entryX=0.673;entryY=1.094;entryDx=0;entryDy=0;entryPerimeter=0;exitX=1;exitY=0.75;exitDx=0;exitDy=0;" parent="1" source="ROkhfVyDKHd-P5Vk7A-k-199" target="ROkhfVyDKHd-P5Vk7A-k-209" edge="1">
          <mxGeometry width="50" height="50" relative="1" as="geometry">
            <mxPoint x="2430" y="270" as="sourcePoint" />
            <mxPoint x="2480" y="220" as="targetPoint" />
            <Array as="points">
              <mxPoint x="2720" y="170" />
              <mxPoint x="2720" y="271" />
            </Array>
          </mxGeometry>
        </mxCell>
        <mxCell id="ROkhfVyDKHd-P5Vk7A-k-213" value="" style="endArrow=classic;html=1;rounded=0;entryX=1;entryY=0.5;entryDx=0;entryDy=0;" parent="1" target="ROkhfVyDKHd-P5Vk7A-k-209" edge="1">
          <mxGeometry width="50" height="50" relative="1" as="geometry">
            <mxPoint x="2720" y="250" as="sourcePoint" />
            <mxPoint x="2440" y="250" as="targetPoint" />
            <Array as="points">
              <mxPoint x="2720" y="370" />
              <mxPoint x="3040" y="370" />
            </Array>
          </mxGeometry>
        </mxCell>
        <mxCell id="ROkhfVyDKHd-P5Vk7A-k-214" style="edgeStyle=orthogonalEdgeStyle;rounded=0;orthogonalLoop=1;jettySize=auto;html=1;entryX=0;entryY=0.25;entryDx=0;entryDy=0;" parent="1" source="ROkhfVyDKHd-P5Vk7A-k-215" target="ROkhfVyDKHd-P5Vk7A-k-222" edge="1">
          <mxGeometry relative="1" as="geometry">
            <Array as="points">
              <mxPoint x="3450" y="130" />
              <mxPoint x="3450" y="68" />
            </Array>
          </mxGeometry>
        </mxCell>
        <mxCell id="ROkhfVyDKHd-P5Vk7A-k-215" value="=1" style="rounded=0;whiteSpace=wrap;html=1;" parent="1" vertex="1">
          <mxGeometry x="3310" y="85" width="100" height="90" as="geometry" />
        </mxCell>
        <mxCell id="ROkhfVyDKHd-P5Vk7A-k-216" value="" style="endArrow=none;html=1;rounded=0;entryX=0;entryY=0.25;entryDx=0;entryDy=0;" parent="1" target="ROkhfVyDKHd-P5Vk7A-k-215" edge="1">
          <mxGeometry width="50" height="50" relative="1" as="geometry">
            <mxPoint x="3100" y="475" as="sourcePoint" />
            <mxPoint x="3250" y="325" as="targetPoint" />
            <Array as="points">
              <mxPoint x="3100" y="108" />
            </Array>
          </mxGeometry>
        </mxCell>
        <mxCell id="ROkhfVyDKHd-P5Vk7A-k-217" value="" style="endArrow=none;html=1;rounded=0;entryX=-0.026;entryY=0.647;entryDx=0;entryDy=0;entryPerimeter=0;" parent="1" target="ROkhfVyDKHd-P5Vk7A-k-215" edge="1">
          <mxGeometry width="50" height="50" relative="1" as="geometry">
            <mxPoint x="3130" y="255" as="sourcePoint" />
            <mxPoint x="3250" y="325" as="targetPoint" />
            <Array as="points">
              <mxPoint x="3130" y="145" />
            </Array>
          </mxGeometry>
        </mxCell>
        <mxCell id="ROkhfVyDKHd-P5Vk7A-k-218" value="" style="endArrow=none;html=1;rounded=0;" parent="1" edge="1">
          <mxGeometry width="50" height="50" relative="1" as="geometry">
            <mxPoint x="3070" y="255" as="sourcePoint" />
            <mxPoint x="3130" y="255" as="targetPoint" />
          </mxGeometry>
        </mxCell>
        <mxCell id="ROkhfVyDKHd-P5Vk7A-k-219" value="I0" style="text;html=1;align=center;verticalAlign=middle;whiteSpace=wrap;rounded=0;" parent="1" vertex="1">
          <mxGeometry x="3250" y="75" width="60" height="30" as="geometry" />
        </mxCell>
        <mxCell id="ROkhfVyDKHd-P5Vk7A-k-220" value="I1" style="text;html=1;align=center;verticalAlign=middle;whiteSpace=wrap;rounded=0;" parent="1" vertex="1">
          <mxGeometry x="3250" y="115" width="60" height="30" as="geometry" />
        </mxCell>
        <mxCell id="ROkhfVyDKHd-P5Vk7A-k-221" style="edgeStyle=orthogonalEdgeStyle;rounded=0;orthogonalLoop=1;jettySize=auto;html=1;entryX=0.25;entryY=1;entryDx=0;entryDy=0;" parent="1" source="ROkhfVyDKHd-P5Vk7A-k-222" target="ROkhfVyDKHd-P5Vk7A-k-225" edge="1">
          <mxGeometry relative="1" as="geometry" />
        </mxCell>
        <mxCell id="ROkhfVyDKHd-P5Vk7A-k-222" value="=1" style="rounded=0;whiteSpace=wrap;html=1;" parent="1" vertex="1">
          <mxGeometry x="3630" y="45" width="100" height="90" as="geometry" />
        </mxCell>
        <mxCell id="ROkhfVyDKHd-P5Vk7A-k-223" style="edgeStyle=orthogonalEdgeStyle;rounded=0;orthogonalLoop=1;jettySize=auto;html=1;entryX=0;entryY=0.75;entryDx=0;entryDy=0;" parent="1" source="ROkhfVyDKHd-P5Vk7A-k-224" target="ROkhfVyDKHd-P5Vk7A-k-222" edge="1">
          <mxGeometry relative="1" as="geometry" />
        </mxCell>
        <mxCell id="ROkhfVyDKHd-P5Vk7A-k-224" value="8&#39;b10111000" style="ellipse;whiteSpace=wrap;html=1;" parent="1" vertex="1">
          <mxGeometry x="3470" y="85" width="90" height="50" as="geometry" />
        </mxCell>
        <mxCell id="ROkhfVyDKHd-P5Vk7A-k-225" value="" style="shape=trapezoid;perimeter=trapezoidPerimeter;whiteSpace=wrap;html=1;fixedSize=1;rotation=90;" parent="1" vertex="1">
          <mxGeometry x="3760" y="210" width="120" height="50" as="geometry" />
        </mxCell>
        <mxCell id="ROkhfVyDKHd-P5Vk7A-k-226" value="MUX" style="text;html=1;align=center;verticalAlign=middle;whiteSpace=wrap;rounded=0;" parent="1" vertex="1">
          <mxGeometry x="3790" y="215" width="60" height="30" as="geometry" />
        </mxCell>
        <mxCell id="ROkhfVyDKHd-P5Vk7A-k-227" value="" style="endArrow=none;html=1;rounded=0;" parent="1" edge="1">
          <mxGeometry width="50" height="50" relative="1" as="geometry">
            <mxPoint x="3850" y="240" as="sourcePoint" />
            <mxPoint x="3910" y="240" as="targetPoint" />
          </mxGeometry>
        </mxCell>
        <mxCell id="ROkhfVyDKHd-P5Vk7A-k-228" value="" style="endArrow=classic;html=1;rounded=0;entryX=0.673;entryY=1.094;entryDx=0;entryDy=0;entryPerimeter=0;exitX=1;exitY=0.75;exitDx=0;exitDy=0;" parent="1" source="ROkhfVyDKHd-P5Vk7A-k-215" target="ROkhfVyDKHd-P5Vk7A-k-225" edge="1">
          <mxGeometry width="50" height="50" relative="1" as="geometry">
            <mxPoint x="3210" y="255" as="sourcePoint" />
            <mxPoint x="3260" y="205" as="targetPoint" />
            <Array as="points">
              <mxPoint x="3500" y="155" />
              <mxPoint x="3500" y="256" />
            </Array>
          </mxGeometry>
        </mxCell>
        <mxCell id="ROkhfVyDKHd-P5Vk7A-k-229" value="" style="endArrow=classic;html=1;rounded=0;entryX=1;entryY=0.5;entryDx=0;entryDy=0;" parent="1" target="ROkhfVyDKHd-P5Vk7A-k-225" edge="1">
          <mxGeometry width="50" height="50" relative="1" as="geometry">
            <mxPoint x="3500" y="235" as="sourcePoint" />
            <mxPoint x="3220" y="235" as="targetPoint" />
            <Array as="points">
              <mxPoint x="3500" y="355" />
              <mxPoint x="3820" y="355" />
            </Array>
          </mxGeometry>
        </mxCell>
        <mxCell id="ROkhfVyDKHd-P5Vk7A-k-230" style="edgeStyle=orthogonalEdgeStyle;rounded=0;orthogonalLoop=1;jettySize=auto;html=1;entryX=0;entryY=0.25;entryDx=0;entryDy=0;" parent="1" source="ROkhfVyDKHd-P5Vk7A-k-231" target="ROkhfVyDKHd-P5Vk7A-k-238" edge="1">
          <mxGeometry relative="1" as="geometry">
            <Array as="points">
              <mxPoint x="4250" y="115" />
              <mxPoint x="4250" y="53" />
            </Array>
          </mxGeometry>
        </mxCell>
        <mxCell id="ROkhfVyDKHd-P5Vk7A-k-231" value="=1" style="rounded=0;whiteSpace=wrap;html=1;" parent="1" vertex="1">
          <mxGeometry x="4110" y="70" width="100" height="90" as="geometry" />
        </mxCell>
        <mxCell id="ROkhfVyDKHd-P5Vk7A-k-232" value="" style="endArrow=none;html=1;rounded=0;entryX=0;entryY=0.25;entryDx=0;entryDy=0;" parent="1" target="ROkhfVyDKHd-P5Vk7A-k-231" edge="1">
          <mxGeometry width="50" height="50" relative="1" as="geometry">
            <mxPoint x="3900" y="460" as="sourcePoint" />
            <mxPoint x="4050" y="310" as="targetPoint" />
            <Array as="points">
              <mxPoint x="3900" y="93" />
            </Array>
          </mxGeometry>
        </mxCell>
        <mxCell id="ROkhfVyDKHd-P5Vk7A-k-233" value="" style="endArrow=none;html=1;rounded=0;entryX=-0.026;entryY=0.647;entryDx=0;entryDy=0;entryPerimeter=0;" parent="1" target="ROkhfVyDKHd-P5Vk7A-k-231" edge="1">
          <mxGeometry width="50" height="50" relative="1" as="geometry">
            <mxPoint x="3930" y="240" as="sourcePoint" />
            <mxPoint x="4050" y="310" as="targetPoint" />
            <Array as="points">
              <mxPoint x="3930" y="130" />
            </Array>
          </mxGeometry>
        </mxCell>
        <mxCell id="ROkhfVyDKHd-P5Vk7A-k-234" value="" style="endArrow=none;html=1;rounded=0;" parent="1" edge="1">
          <mxGeometry width="50" height="50" relative="1" as="geometry">
            <mxPoint x="3870" y="240" as="sourcePoint" />
            <mxPoint x="3930" y="240" as="targetPoint" />
          </mxGeometry>
        </mxCell>
        <mxCell id="ROkhfVyDKHd-P5Vk7A-k-235" value="I0" style="text;html=1;align=center;verticalAlign=middle;whiteSpace=wrap;rounded=0;" parent="1" vertex="1">
          <mxGeometry x="4050" y="60" width="60" height="30" as="geometry" />
        </mxCell>
        <mxCell id="ROkhfVyDKHd-P5Vk7A-k-236" value="I1" style="text;html=1;align=center;verticalAlign=middle;whiteSpace=wrap;rounded=0;" parent="1" vertex="1">
          <mxGeometry x="4050" y="100" width="60" height="30" as="geometry" />
        </mxCell>
        <mxCell id="ROkhfVyDKHd-P5Vk7A-k-237" style="edgeStyle=orthogonalEdgeStyle;rounded=0;orthogonalLoop=1;jettySize=auto;html=1;entryX=0.25;entryY=1;entryDx=0;entryDy=0;" parent="1" source="ROkhfVyDKHd-P5Vk7A-k-238" target="ROkhfVyDKHd-P5Vk7A-k-241" edge="1">
          <mxGeometry relative="1" as="geometry" />
        </mxCell>
        <mxCell id="ROkhfVyDKHd-P5Vk7A-k-238" value="=1" style="rounded=0;whiteSpace=wrap;html=1;" parent="1" vertex="1">
          <mxGeometry x="4430" y="30" width="100" height="90" as="geometry" />
        </mxCell>
        <mxCell id="ROkhfVyDKHd-P5Vk7A-k-239" style="edgeStyle=orthogonalEdgeStyle;rounded=0;orthogonalLoop=1;jettySize=auto;html=1;entryX=0;entryY=0.75;entryDx=0;entryDy=0;" parent="1" source="ROkhfVyDKHd-P5Vk7A-k-240" target="ROkhfVyDKHd-P5Vk7A-k-238" edge="1">
          <mxGeometry relative="1" as="geometry" />
        </mxCell>
        <mxCell id="ROkhfVyDKHd-P5Vk7A-k-240" value="8&#39;b10111000" style="ellipse;whiteSpace=wrap;html=1;" parent="1" vertex="1">
          <mxGeometry x="4270" y="70" width="90" height="50" as="geometry" />
        </mxCell>
        <mxCell id="ROkhfVyDKHd-P5Vk7A-k-241" value="" style="shape=trapezoid;perimeter=trapezoidPerimeter;whiteSpace=wrap;html=1;fixedSize=1;rotation=90;" parent="1" vertex="1">
          <mxGeometry x="4560" y="195" width="120" height="50" as="geometry" />
        </mxCell>
        <mxCell id="ROkhfVyDKHd-P5Vk7A-k-242" value="MUX" style="text;html=1;align=center;verticalAlign=middle;whiteSpace=wrap;rounded=0;" parent="1" vertex="1">
          <mxGeometry x="4590" y="200" width="60" height="30" as="geometry" />
        </mxCell>
        <mxCell id="ROkhfVyDKHd-P5Vk7A-k-243" value="" style="endArrow=none;html=1;rounded=0;" parent="1" edge="1">
          <mxGeometry width="50" height="50" relative="1" as="geometry">
            <mxPoint x="4650" y="225" as="sourcePoint" />
            <mxPoint x="4710" y="225" as="targetPoint" />
          </mxGeometry>
        </mxCell>
        <mxCell id="ROkhfVyDKHd-P5Vk7A-k-244" value="" style="endArrow=classic;html=1;rounded=0;entryX=0.673;entryY=1.094;entryDx=0;entryDy=0;entryPerimeter=0;exitX=1;exitY=0.75;exitDx=0;exitDy=0;" parent="1" source="ROkhfVyDKHd-P5Vk7A-k-231" target="ROkhfVyDKHd-P5Vk7A-k-241" edge="1">
          <mxGeometry width="50" height="50" relative="1" as="geometry">
            <mxPoint x="4010" y="240" as="sourcePoint" />
            <mxPoint x="4060" y="190" as="targetPoint" />
            <Array as="points">
              <mxPoint x="4300" y="140" />
              <mxPoint x="4300" y="241" />
            </Array>
          </mxGeometry>
        </mxCell>
        <mxCell id="ROkhfVyDKHd-P5Vk7A-k-245" value="" style="endArrow=classic;html=1;rounded=0;entryX=1;entryY=0.5;entryDx=0;entryDy=0;" parent="1" target="ROkhfVyDKHd-P5Vk7A-k-241" edge="1">
          <mxGeometry width="50" height="50" relative="1" as="geometry">
            <mxPoint x="4300" y="220" as="sourcePoint" />
            <mxPoint x="4020" y="220" as="targetPoint" />
            <Array as="points">
              <mxPoint x="4300" y="340" />
              <mxPoint x="4620" y="340" />
            </Array>
          </mxGeometry>
        </mxCell>
        <mxCell id="ROkhfVyDKHd-P5Vk7A-k-246" style="edgeStyle=orthogonalEdgeStyle;rounded=0;orthogonalLoop=1;jettySize=auto;html=1;entryX=0;entryY=0.25;entryDx=0;entryDy=0;" parent="1" source="ROkhfVyDKHd-P5Vk7A-k-247" target="ROkhfVyDKHd-P5Vk7A-k-254" edge="1">
          <mxGeometry relative="1" as="geometry">
            <Array as="points">
              <mxPoint x="5040" y="100" />
              <mxPoint x="5040" y="38" />
            </Array>
          </mxGeometry>
        </mxCell>
        <mxCell id="ROkhfVyDKHd-P5Vk7A-k-247" value="=1" style="rounded=0;whiteSpace=wrap;html=1;" parent="1" vertex="1">
          <mxGeometry x="4900" y="55" width="100" height="90" as="geometry" />
        </mxCell>
        <mxCell id="ROkhfVyDKHd-P5Vk7A-k-248" value="" style="endArrow=none;html=1;rounded=0;entryX=0;entryY=0.25;entryDx=0;entryDy=0;" parent="1" target="ROkhfVyDKHd-P5Vk7A-k-247" edge="1">
          <mxGeometry width="50" height="50" relative="1" as="geometry">
            <mxPoint x="4690" y="460" as="sourcePoint" />
            <mxPoint x="4840" y="295" as="targetPoint" />
            <Array as="points">
              <mxPoint x="4690" y="78" />
            </Array>
          </mxGeometry>
        </mxCell>
        <mxCell id="ROkhfVyDKHd-P5Vk7A-k-249" value="" style="endArrow=none;html=1;rounded=0;entryX=-0.026;entryY=0.647;entryDx=0;entryDy=0;entryPerimeter=0;" parent="1" target="ROkhfVyDKHd-P5Vk7A-k-247" edge="1">
          <mxGeometry width="50" height="50" relative="1" as="geometry">
            <mxPoint x="4720" y="225" as="sourcePoint" />
            <mxPoint x="4840" y="295" as="targetPoint" />
            <Array as="points">
              <mxPoint x="4720" y="115" />
            </Array>
          </mxGeometry>
        </mxCell>
        <mxCell id="ROkhfVyDKHd-P5Vk7A-k-250" value="" style="endArrow=none;html=1;rounded=0;" parent="1" edge="1">
          <mxGeometry width="50" height="50" relative="1" as="geometry">
            <mxPoint x="4660" y="225" as="sourcePoint" />
            <mxPoint x="4720" y="225" as="targetPoint" />
          </mxGeometry>
        </mxCell>
        <mxCell id="ROkhfVyDKHd-P5Vk7A-k-251" value="I0" style="text;html=1;align=center;verticalAlign=middle;whiteSpace=wrap;rounded=0;" parent="1" vertex="1">
          <mxGeometry x="4840" y="45" width="60" height="30" as="geometry" />
        </mxCell>
        <mxCell id="ROkhfVyDKHd-P5Vk7A-k-252" value="I1" style="text;html=1;align=center;verticalAlign=middle;whiteSpace=wrap;rounded=0;" parent="1" vertex="1">
          <mxGeometry x="4840" y="85" width="60" height="30" as="geometry" />
        </mxCell>
        <mxCell id="ROkhfVyDKHd-P5Vk7A-k-253" style="edgeStyle=orthogonalEdgeStyle;rounded=0;orthogonalLoop=1;jettySize=auto;html=1;entryX=0.25;entryY=1;entryDx=0;entryDy=0;" parent="1" source="ROkhfVyDKHd-P5Vk7A-k-254" target="ROkhfVyDKHd-P5Vk7A-k-257" edge="1">
          <mxGeometry relative="1" as="geometry" />
        </mxCell>
        <mxCell id="ROkhfVyDKHd-P5Vk7A-k-254" value="=1" style="rounded=0;whiteSpace=wrap;html=1;" parent="1" vertex="1">
          <mxGeometry x="5220" y="15" width="100" height="90" as="geometry" />
        </mxCell>
        <mxCell id="ROkhfVyDKHd-P5Vk7A-k-255" style="edgeStyle=orthogonalEdgeStyle;rounded=0;orthogonalLoop=1;jettySize=auto;html=1;entryX=0;entryY=0.75;entryDx=0;entryDy=0;" parent="1" source="ROkhfVyDKHd-P5Vk7A-k-256" target="ROkhfVyDKHd-P5Vk7A-k-254" edge="1">
          <mxGeometry relative="1" as="geometry" />
        </mxCell>
        <mxCell id="ROkhfVyDKHd-P5Vk7A-k-256" value="8&#39;b10111000" style="ellipse;whiteSpace=wrap;html=1;" parent="1" vertex="1">
          <mxGeometry x="5060" y="55" width="90" height="50" as="geometry" />
        </mxCell>
        <mxCell id="ROkhfVyDKHd-P5Vk7A-k-257" value="" style="shape=trapezoid;perimeter=trapezoidPerimeter;whiteSpace=wrap;html=1;fixedSize=1;rotation=90;" parent="1" vertex="1">
          <mxGeometry x="5350" y="180" width="120" height="50" as="geometry" />
        </mxCell>
        <mxCell id="ROkhfVyDKHd-P5Vk7A-k-258" value="MUX" style="text;html=1;align=center;verticalAlign=middle;whiteSpace=wrap;rounded=0;" parent="1" vertex="1">
          <mxGeometry x="5380" y="185" width="60" height="30" as="geometry" />
        </mxCell>
        <mxCell id="ROkhfVyDKHd-P5Vk7A-k-259" value="" style="endArrow=none;html=1;rounded=0;" parent="1" edge="1">
          <mxGeometry width="50" height="50" relative="1" as="geometry">
            <mxPoint x="5440" y="210" as="sourcePoint" />
            <mxPoint x="5500" y="210" as="targetPoint" />
          </mxGeometry>
        </mxCell>
        <mxCell id="ROkhfVyDKHd-P5Vk7A-k-260" value="" style="endArrow=classic;html=1;rounded=0;entryX=0.673;entryY=1.094;entryDx=0;entryDy=0;entryPerimeter=0;exitX=1;exitY=0.75;exitDx=0;exitDy=0;" parent="1" source="ROkhfVyDKHd-P5Vk7A-k-247" target="ROkhfVyDKHd-P5Vk7A-k-257" edge="1">
          <mxGeometry width="50" height="50" relative="1" as="geometry">
            <mxPoint x="4800" y="225" as="sourcePoint" />
            <mxPoint x="4850" y="175" as="targetPoint" />
            <Array as="points">
              <mxPoint x="5090" y="125" />
              <mxPoint x="5090" y="226" />
            </Array>
          </mxGeometry>
        </mxCell>
        <mxCell id="ROkhfVyDKHd-P5Vk7A-k-261" value="" style="endArrow=classic;html=1;rounded=0;entryX=1;entryY=0.5;entryDx=0;entryDy=0;" parent="1" target="ROkhfVyDKHd-P5Vk7A-k-257" edge="1">
          <mxGeometry width="50" height="50" relative="1" as="geometry">
            <mxPoint x="5090" y="205" as="sourcePoint" />
            <mxPoint x="4810" y="205" as="targetPoint" />
            <Array as="points">
              <mxPoint x="5090" y="325" />
              <mxPoint x="5410" y="325" />
            </Array>
          </mxGeometry>
        </mxCell>
        <mxCell id="ROkhfVyDKHd-P5Vk7A-k-262" value="" style="endArrow=none;html=1;rounded=0;" parent="1" edge="1">
          <mxGeometry width="50" height="50" relative="1" as="geometry">
            <mxPoint x="2320" y="480" as="sourcePoint" />
            <mxPoint x="1540" y="480" as="targetPoint" />
          </mxGeometry>
        </mxCell>
        <mxCell id="ROkhfVyDKHd-P5Vk7A-k-263" value="" style="endArrow=none;html=1;rounded=0;" parent="1" edge="1">
          <mxGeometry width="50" height="50" relative="1" as="geometry">
            <mxPoint x="2320" y="470" as="sourcePoint" />
            <mxPoint x="3110" y="470" as="targetPoint" />
          </mxGeometry>
        </mxCell>
        <mxCell id="ROkhfVyDKHd-P5Vk7A-k-264" style="edgeStyle=orthogonalEdgeStyle;rounded=0;orthogonalLoop=1;jettySize=auto;html=1;entryX=0;entryY=0.25;entryDx=0;entryDy=0;" parent="1" source="ROkhfVyDKHd-P5Vk7A-k-265" target="ROkhfVyDKHd-P5Vk7A-k-272" edge="1">
          <mxGeometry relative="1" as="geometry">
            <Array as="points">
              <mxPoint x="5820" y="85" />
              <mxPoint x="5820" y="23" />
            </Array>
          </mxGeometry>
        </mxCell>
        <mxCell id="ROkhfVyDKHd-P5Vk7A-k-265" value="=1" style="rounded=0;whiteSpace=wrap;html=1;" parent="1" vertex="1">
          <mxGeometry x="5680" y="40" width="100" height="90" as="geometry" />
        </mxCell>
        <mxCell id="ROkhfVyDKHd-P5Vk7A-k-266" value="" style="endArrow=none;html=1;rounded=0;entryX=0;entryY=0.25;entryDx=0;entryDy=0;" parent="1" target="ROkhfVyDKHd-P5Vk7A-k-265" edge="1">
          <mxGeometry width="50" height="50" relative="1" as="geometry">
            <mxPoint x="5470" y="430" as="sourcePoint" />
            <mxPoint x="5620" y="280" as="targetPoint" />
            <Array as="points">
              <mxPoint x="5470" y="63" />
            </Array>
          </mxGeometry>
        </mxCell>
        <mxCell id="ROkhfVyDKHd-P5Vk7A-k-267" value="" style="endArrow=none;html=1;rounded=0;entryX=-0.026;entryY=0.647;entryDx=0;entryDy=0;entryPerimeter=0;" parent="1" target="ROkhfVyDKHd-P5Vk7A-k-265" edge="1">
          <mxGeometry width="50" height="50" relative="1" as="geometry">
            <mxPoint x="5500" y="210" as="sourcePoint" />
            <mxPoint x="5620" y="280" as="targetPoint" />
            <Array as="points">
              <mxPoint x="5500" y="100" />
            </Array>
          </mxGeometry>
        </mxCell>
        <mxCell id="ROkhfVyDKHd-P5Vk7A-k-268" value="" style="endArrow=none;html=1;rounded=0;" parent="1" edge="1">
          <mxGeometry width="50" height="50" relative="1" as="geometry">
            <mxPoint x="5440" y="210" as="sourcePoint" />
            <mxPoint x="5500" y="210" as="targetPoint" />
          </mxGeometry>
        </mxCell>
        <mxCell id="ROkhfVyDKHd-P5Vk7A-k-269" value="I0" style="text;html=1;align=center;verticalAlign=middle;whiteSpace=wrap;rounded=0;" parent="1" vertex="1">
          <mxGeometry x="5620" y="30" width="60" height="30" as="geometry" />
        </mxCell>
        <mxCell id="ROkhfVyDKHd-P5Vk7A-k-270" value="I1" style="text;html=1;align=center;verticalAlign=middle;whiteSpace=wrap;rounded=0;" parent="1" vertex="1">
          <mxGeometry x="5620" y="70" width="60" height="30" as="geometry" />
        </mxCell>
        <mxCell id="ROkhfVyDKHd-P5Vk7A-k-271" style="edgeStyle=orthogonalEdgeStyle;rounded=0;orthogonalLoop=1;jettySize=auto;html=1;entryX=0.25;entryY=1;entryDx=0;entryDy=0;" parent="1" source="ROkhfVyDKHd-P5Vk7A-k-272" target="ROkhfVyDKHd-P5Vk7A-k-275" edge="1">
          <mxGeometry relative="1" as="geometry" />
        </mxCell>
        <mxCell id="ROkhfVyDKHd-P5Vk7A-k-272" value="=1" style="rounded=0;whiteSpace=wrap;html=1;" parent="1" vertex="1">
          <mxGeometry x="6000" width="100" height="90" as="geometry" />
        </mxCell>
        <mxCell id="ROkhfVyDKHd-P5Vk7A-k-273" style="edgeStyle=orthogonalEdgeStyle;rounded=0;orthogonalLoop=1;jettySize=auto;html=1;entryX=0;entryY=0.75;entryDx=0;entryDy=0;" parent="1" source="ROkhfVyDKHd-P5Vk7A-k-274" target="ROkhfVyDKHd-P5Vk7A-k-272" edge="1">
          <mxGeometry relative="1" as="geometry" />
        </mxCell>
        <mxCell id="ROkhfVyDKHd-P5Vk7A-k-274" value="8&#39;b10111000" style="ellipse;whiteSpace=wrap;html=1;" parent="1" vertex="1">
          <mxGeometry x="5840" y="40" width="90" height="50" as="geometry" />
        </mxCell>
        <mxCell id="ROkhfVyDKHd-P5Vk7A-k-275" value="" style="shape=trapezoid;perimeter=trapezoidPerimeter;whiteSpace=wrap;html=1;fixedSize=1;rotation=90;" parent="1" vertex="1">
          <mxGeometry x="6130" y="165" width="120" height="50" as="geometry" />
        </mxCell>
        <mxCell id="ROkhfVyDKHd-P5Vk7A-k-276" value="MUX" style="text;html=1;align=center;verticalAlign=middle;whiteSpace=wrap;rounded=0;" parent="1" vertex="1">
          <mxGeometry x="6160" y="170" width="60" height="30" as="geometry" />
        </mxCell>
        <mxCell id="ROkhfVyDKHd-P5Vk7A-k-278" value="" style="endArrow=classic;html=1;rounded=0;entryX=0.673;entryY=1.094;entryDx=0;entryDy=0;entryPerimeter=0;exitX=1;exitY=0.75;exitDx=0;exitDy=0;" parent="1" source="ROkhfVyDKHd-P5Vk7A-k-265" target="ROkhfVyDKHd-P5Vk7A-k-275" edge="1">
          <mxGeometry width="50" height="50" relative="1" as="geometry">
            <mxPoint x="5580" y="210" as="sourcePoint" />
            <mxPoint x="5630" y="160" as="targetPoint" />
            <Array as="points">
              <mxPoint x="5870" y="110" />
              <mxPoint x="5870" y="211" />
            </Array>
          </mxGeometry>
        </mxCell>
        <mxCell id="ROkhfVyDKHd-P5Vk7A-k-279" value="" style="endArrow=classic;html=1;rounded=0;entryX=1;entryY=0.5;entryDx=0;entryDy=0;" parent="1" target="ROkhfVyDKHd-P5Vk7A-k-275" edge="1">
          <mxGeometry width="50" height="50" relative="1" as="geometry">
            <mxPoint x="5870" y="190" as="sourcePoint" />
            <mxPoint x="5590" y="190" as="targetPoint" />
            <Array as="points">
              <mxPoint x="5870" y="310" />
              <mxPoint x="6190" y="310" />
            </Array>
          </mxGeometry>
        </mxCell>
        <mxCell id="ROkhfVyDKHd-P5Vk7A-k-281" style="edgeStyle=orthogonalEdgeStyle;rounded=0;orthogonalLoop=1;jettySize=auto;html=1;entryX=0.648;entryY=1;entryDx=0;entryDy=0;entryPerimeter=0;exitX=1;exitY=0.75;exitDx=0;exitDy=0;" parent="1" source="ROkhfVyDKHd-P5Vk7A-k-276" target="MgPcqN-SobAYdUNbGhHo-4" edge="1">
          <mxGeometry relative="1" as="geometry">
            <mxPoint x="6280" y="192.26999999999998" as="sourcePoint" />
            <mxPoint x="6470.5999999999985" y="120.26999999999998" as="targetPoint" />
          </mxGeometry>
        </mxCell>
        <mxCell id="ROkhfVyDKHd-P5Vk7A-k-282" value="8&#39;b10111000" style="ellipse;whiteSpace=wrap;html=1;" parent="1" vertex="1">
          <mxGeometry x="6240" y="57.269999999999996" width="90" height="50" as="geometry" />
        </mxCell>
        <mxCell id="ROkhfVyDKHd-P5Vk7A-k-283" style="edgeStyle=orthogonalEdgeStyle;rounded=0;orthogonalLoop=1;jettySize=auto;html=1;" parent="1" source="ROkhfVyDKHd-P5Vk7A-k-282" edge="1">
          <mxGeometry relative="1" as="geometry">
            <Array as="points">
              <mxPoint x="6405" y="80.27" />
            </Array>
            <mxPoint x="6520" y="80" as="targetPoint" />
          </mxGeometry>
        </mxCell>
        <mxCell id="ROkhfVyDKHd-P5Vk7A-k-284" value="I0" style="text;html=1;align=center;verticalAlign=middle;whiteSpace=wrap;rounded=0;" parent="1" vertex="1">
          <mxGeometry x="6410" y="57.27" width="90" height="30" as="geometry" />
        </mxCell>
        <mxCell id="ROkhfVyDKHd-P5Vk7A-k-285" value="I1" style="text;html=1;align=center;verticalAlign=middle;whiteSpace=wrap;rounded=0;" parent="1" vertex="1">
          <mxGeometry x="6410" y="97.27" width="60" height="30" as="geometry" />
        </mxCell>
        <mxCell id="ROkhfVyDKHd-P5Vk7A-k-287" value="" style="endArrow=none;html=1;rounded=0;" parent="1" edge="1">
          <mxGeometry width="50" height="50" relative="1" as="geometry">
            <mxPoint x="3100" y="410" as="sourcePoint" />
            <mxPoint x="3900" y="410" as="targetPoint" />
          </mxGeometry>
        </mxCell>
        <mxCell id="ROkhfVyDKHd-P5Vk7A-k-288" value="" style="endArrow=none;html=1;rounded=0;" parent="1" edge="1">
          <mxGeometry width="50" height="50" relative="1" as="geometry">
            <mxPoint x="3900" y="460" as="sourcePoint" />
            <mxPoint x="4690" y="460" as="targetPoint" />
          </mxGeometry>
        </mxCell>
        <mxCell id="ROkhfVyDKHd-P5Vk7A-k-289" value="" style="endArrow=none;html=1;rounded=0;" parent="1" edge="1">
          <mxGeometry width="50" height="50" relative="1" as="geometry">
            <mxPoint x="5470" y="430" as="sourcePoint" />
            <mxPoint x="4690" y="430" as="targetPoint" />
          </mxGeometry>
        </mxCell>
        <mxCell id="ROkhfVyDKHd-P5Vk7A-k-290" value="" style="endArrow=classic;html=1;rounded=0;exitX=1;exitY=0.5;exitDx=0;exitDy=0;" parent="1" edge="1">
          <mxGeometry width="50" height="50" relative="1" as="geometry">
            <mxPoint x="6570" y="102.26999999999998" as="sourcePoint" />
            <mxPoint x="6690" y="102" as="targetPoint" />
          </mxGeometry>
        </mxCell>
        <mxCell id="ROkhfVyDKHd-P5Vk7A-k-291" value="" style="shape=offPageConnector;whiteSpace=wrap;html=1;rotation=-90;fillColor=#f8cecc;strokeColor=#b85450;" parent="1" vertex="1">
          <mxGeometry x="6710" y="70" width="40" height="60" as="geometry" />
        </mxCell>
        <mxCell id="ROkhfVyDKHd-P5Vk7A-k-292" value="y_bo" style="text;html=1;align=center;verticalAlign=middle;whiteSpace=wrap;rounded=0;" parent="1" vertex="1">
          <mxGeometry x="6690" y="85" width="60" height="30" as="geometry" />
        </mxCell>
        <mxCell id="ROkhfVyDKHd-P5Vk7A-k-293" value="" style="endArrow=none;html=1;rounded=0;" parent="1" edge="1">
          <mxGeometry width="50" height="50" relative="1" as="geometry">
            <mxPoint x="5470" y="410" as="sourcePoint" />
            <mxPoint x="6650" y="100" as="targetPoint" />
            <Array as="points">
              <mxPoint x="6650" y="400" />
            </Array>
          </mxGeometry>
        </mxCell>
        <mxCell id="Q9Wf2DNw1fWQLmLuAQot-1" value="" style="endArrow=none;dashed=1;html=1;dashPattern=1 3;strokeWidth=2;rounded=0;exitX=0.5;exitY=1;exitDx=0;exitDy=0;entryX=0.5;entryY=1;entryDx=0;entryDy=0;" parent="1" source="ROkhfVyDKHd-P5Vk7A-k-1" target="ROkhfVyDKHd-P5Vk7A-k-292" edge="1">
          <mxGeometry width="50" height="50" relative="1" as="geometry">
            <mxPoint x="980" y="80" as="sourcePoint" />
            <mxPoint x="1030" y="30" as="targetPoint" />
            <Array as="points">
              <mxPoint x="6720" y="540" />
            </Array>
          </mxGeometry>
        </mxCell>
        <mxCell id="MgPcqN-SobAYdUNbGhHo-4" value="" style="shape=trapezoid;perimeter=trapezoidPerimeter;whiteSpace=wrap;html=1;fixedSize=1;rotation=90;" parent="1" vertex="1">
          <mxGeometry x="6490" y="80" width="120" height="50" as="geometry" />
        </mxCell>
        <mxCell id="MgPcqN-SobAYdUNbGhHo-6" value="MUX" style="text;html=1;align=center;verticalAlign=middle;whiteSpace=wrap;rounded=0;" parent="1" vertex="1">
          <mxGeometry x="6520" y="85" width="60" height="30" as="geometry" />
        </mxCell>
      </root>
    </mxGraphModel>
  </diagram>
  <diagram id="dxX30irYe3g3D72L0QpP" name="bist">
    <mxGraphModel dx="2514" dy="1088" grid="1" gridSize="10" guides="1" tooltips="1" connect="1" arrows="1" fold="1" page="1" pageScale="1" pageWidth="827" pageHeight="1169" math="0" shadow="0">
      <root>
        <mxCell id="0" />
        <mxCell id="1" parent="0" />
        <mxCell id="_w8FLvR_EZ2zur9MJwgX-5" style="edgeStyle=orthogonalEdgeStyle;rounded=0;orthogonalLoop=1;jettySize=auto;html=1;entryX=0.75;entryY=1;entryDx=0;entryDy=0;" edge="1" parent="1" source="n5oUKIoveOJKJKvjMoLz-1" target="_w8FLvR_EZ2zur9MJwgX-1">
          <mxGeometry relative="1" as="geometry" />
        </mxCell>
        <mxCell id="n5oUKIoveOJKJKvjMoLz-1" value="" style="whiteSpace=wrap;html=1;aspect=fixed;fillColor=#d5e8d4;strokeColor=#82b366;" vertex="1" parent="1">
          <mxGeometry x="102.5" y="1010" width="80" height="80" as="geometry" />
        </mxCell>
        <mxCell id="n5oUKIoveOJKJKvjMoLz-2" value="" style="triangle;whiteSpace=wrap;html=1;fillColor=#d5e8d4;strokeColor=#82b366;" vertex="1" parent="1">
          <mxGeometry x="102.5" y="1020" width="20" height="30" as="geometry" />
        </mxCell>
        <mxCell id="n5oUKIoveOJKJKvjMoLz-3" value="C" style="text;html=1;align=center;verticalAlign=middle;whiteSpace=wrap;rounded=0;" vertex="1" parent="1">
          <mxGeometry x="90" y="1020" width="45" height="30" as="geometry" />
        </mxCell>
        <mxCell id="n5oUKIoveOJKJKvjMoLz-4" value="rst" style="text;html=1;align=center;verticalAlign=middle;whiteSpace=wrap;rounded=0;" vertex="1" parent="1">
          <mxGeometry x="102.5" y="1050" width="20" height="30" as="geometry" />
        </mxCell>
        <mxCell id="n5oUKIoveOJKJKvjMoLz-5" value="Q" style="text;html=1;align=center;verticalAlign=middle;whiteSpace=wrap;rounded=0;" vertex="1" parent="1">
          <mxGeometry x="162.5" y="1035" width="10" height="35" as="geometry" />
        </mxCell>
        <mxCell id="n5oUKIoveOJKJKvjMoLz-6" value="rst_delay_reg" style="text;html=1;align=center;verticalAlign=middle;whiteSpace=wrap;rounded=0;" vertex="1" parent="1">
          <mxGeometry x="112.5" y="980" width="60" height="30" as="geometry" />
        </mxCell>
        <mxCell id="_w8FLvR_EZ2zur9MJwgX-6" style="edgeStyle=orthogonalEdgeStyle;rounded=0;orthogonalLoop=1;jettySize=auto;html=1;entryX=0.25;entryY=1;entryDx=0;entryDy=0;" edge="1" parent="1" source="n5oUKIoveOJKJKvjMoLz-7" target="_w8FLvR_EZ2zur9MJwgX-3">
          <mxGeometry relative="1" as="geometry" />
        </mxCell>
        <mxCell id="n5oUKIoveOJKJKvjMoLz-7" value="" style="whiteSpace=wrap;html=1;aspect=fixed;fillColor=#d5e8d4;strokeColor=#82b366;" vertex="1" parent="1">
          <mxGeometry x="102.5" y="1150" width="80" height="80" as="geometry" />
        </mxCell>
        <mxCell id="n5oUKIoveOJKJKvjMoLz-8" value="" style="triangle;whiteSpace=wrap;html=1;fillColor=#d5e8d4;strokeColor=#82b366;" vertex="1" parent="1">
          <mxGeometry x="102.5" y="1160" width="20" height="30" as="geometry" />
        </mxCell>
        <mxCell id="n5oUKIoveOJKJKvjMoLz-9" value="C" style="text;html=1;align=center;verticalAlign=middle;whiteSpace=wrap;rounded=0;" vertex="1" parent="1">
          <mxGeometry x="90" y="1160" width="45" height="30" as="geometry" />
        </mxCell>
        <mxCell id="n5oUKIoveOJKJKvjMoLz-10" value="rst" style="text;html=1;align=center;verticalAlign=middle;whiteSpace=wrap;rounded=0;" vertex="1" parent="1">
          <mxGeometry x="102.5" y="1190" width="20" height="30" as="geometry" />
        </mxCell>
        <mxCell id="n5oUKIoveOJKJKvjMoLz-11" value="Q" style="text;html=1;align=center;verticalAlign=middle;whiteSpace=wrap;rounded=0;" vertex="1" parent="1">
          <mxGeometry x="162.5" y="1175" width="10" height="35" as="geometry" />
        </mxCell>
        <mxCell id="n5oUKIoveOJKJKvjMoLz-12" value="rst_delay_reg" style="text;html=1;align=center;verticalAlign=middle;whiteSpace=wrap;rounded=0;" vertex="1" parent="1">
          <mxGeometry x="112.5" y="1120" width="60" height="30" as="geometry" />
        </mxCell>
        <mxCell id="n5oUKIoveOJKJKvjMoLz-13" value="" style="shape=offPageConnector;whiteSpace=wrap;html=1;rotation=-90;fillColor=#f8cecc;strokeColor=#b85450;" vertex="1" parent="1">
          <mxGeometry x="-80" y="1005" width="40" height="60" as="geometry" />
        </mxCell>
        <mxCell id="n5oUKIoveOJKJKvjMoLz-15" style="edgeStyle=orthogonalEdgeStyle;rounded=0;orthogonalLoop=1;jettySize=auto;html=1;" edge="1" parent="1" source="n5oUKIoveOJKJKvjMoLz-14" target="n5oUKIoveOJKJKvjMoLz-3">
          <mxGeometry relative="1" as="geometry" />
        </mxCell>
        <mxCell id="n5oUKIoveOJKJKvjMoLz-23" style="edgeStyle=orthogonalEdgeStyle;rounded=0;orthogonalLoop=1;jettySize=auto;html=1;entryX=0;entryY=0.75;entryDx=0;entryDy=0;" edge="1" parent="1" source="n5oUKIoveOJKJKvjMoLz-14" target="n5oUKIoveOJKJKvjMoLz-9">
          <mxGeometry relative="1" as="geometry">
            <Array as="points">
              <mxPoint x="60" y="1035" />
              <mxPoint x="60" y="1183" />
            </Array>
          </mxGeometry>
        </mxCell>
        <mxCell id="n5oUKIoveOJKJKvjMoLz-14" value="get_enable" style="text;html=1;align=center;verticalAlign=middle;whiteSpace=wrap;rounded=0;" vertex="1" parent="1">
          <mxGeometry x="-90" y="1020" width="60" height="30" as="geometry" />
        </mxCell>
        <mxCell id="n5oUKIoveOJKJKvjMoLz-19" value="" style="shape=offPageConnector;whiteSpace=wrap;html=1;rotation=-90;fillColor=#f8cecc;strokeColor=#b85450;" vertex="1" parent="1">
          <mxGeometry x="-80" y="1145" width="40" height="60" as="geometry" />
        </mxCell>
        <mxCell id="n5oUKIoveOJKJKvjMoLz-21" style="edgeStyle=orthogonalEdgeStyle;rounded=0;orthogonalLoop=1;jettySize=auto;html=1;entryX=0;entryY=0.75;entryDx=0;entryDy=0;" edge="1" parent="1" source="n5oUKIoveOJKJKvjMoLz-20" target="n5oUKIoveOJKJKvjMoLz-10">
          <mxGeometry relative="1" as="geometry" />
        </mxCell>
        <mxCell id="n5oUKIoveOJKJKvjMoLz-24" style="edgeStyle=orthogonalEdgeStyle;rounded=0;orthogonalLoop=1;jettySize=auto;html=1;entryX=0;entryY=0.5;entryDx=0;entryDy=0;" edge="1" parent="1" source="n5oUKIoveOJKJKvjMoLz-20" target="n5oUKIoveOJKJKvjMoLz-4">
          <mxGeometry relative="1" as="geometry" />
        </mxCell>
        <mxCell id="n5oUKIoveOJKJKvjMoLz-20" value="tester" style="text;html=1;align=center;verticalAlign=middle;whiteSpace=wrap;rounded=0;" vertex="1" parent="1">
          <mxGeometry x="-90" y="1160" width="60" height="30" as="geometry" />
        </mxCell>
        <mxCell id="_w8FLvR_EZ2zur9MJwgX-1" value="" style="shape=trapezoid;perimeter=trapezoidPerimeter;whiteSpace=wrap;html=1;fixedSize=1;rotation=90;" vertex="1" parent="1">
          <mxGeometry x="400" y="1020" width="120" height="50" as="geometry" />
        </mxCell>
        <mxCell id="_w8FLvR_EZ2zur9MJwgX-2" value="MUX" style="text;html=1;align=center;verticalAlign=middle;whiteSpace=wrap;rounded=0;" vertex="1" parent="1">
          <mxGeometry x="430" y="1025" width="60" height="30" as="geometry" />
        </mxCell>
        <mxCell id="_w8FLvR_EZ2zur9MJwgX-35" style="edgeStyle=orthogonalEdgeStyle;rounded=0;orthogonalLoop=1;jettySize=auto;html=1;" edge="1" parent="1" source="_w8FLvR_EZ2zur9MJwgX-3" target="_w8FLvR_EZ2zur9MJwgX-31">
          <mxGeometry relative="1" as="geometry" />
        </mxCell>
        <mxCell id="_w8FLvR_EZ2zur9MJwgX-3" value="" style="shape=trapezoid;perimeter=trapezoidPerimeter;whiteSpace=wrap;html=1;fixedSize=1;rotation=90;" vertex="1" parent="1">
          <mxGeometry x="420" y="1190" width="120" height="50" as="geometry" />
        </mxCell>
        <mxCell id="_w8FLvR_EZ2zur9MJwgX-4" value="MUX" style="text;html=1;align=center;verticalAlign=middle;whiteSpace=wrap;rounded=0;" vertex="1" parent="1">
          <mxGeometry x="450" y="1195" width="60" height="30" as="geometry" />
        </mxCell>
        <mxCell id="_w8FLvR_EZ2zur9MJwgX-7" value="" style="shape=offPageConnector;whiteSpace=wrap;html=1;rotation=-90;fillColor=#f8cecc;strokeColor=#b85450;" vertex="1" parent="1">
          <mxGeometry x="340" y="940" width="40" height="60" as="geometry" />
        </mxCell>
        <mxCell id="_w8FLvR_EZ2zur9MJwgX-8" value="a" style="text;html=1;align=center;verticalAlign=middle;whiteSpace=wrap;rounded=0;" vertex="1" parent="1">
          <mxGeometry x="330" y="955" width="60" height="30" as="geometry" />
        </mxCell>
        <mxCell id="_w8FLvR_EZ2zur9MJwgX-9" value="" style="shape=offPageConnector;whiteSpace=wrap;html=1;rotation=-90;fillColor=#f8cecc;strokeColor=#b85450;" vertex="1" parent="1">
          <mxGeometry x="340" y="1225" width="40" height="60" as="geometry" />
        </mxCell>
        <mxCell id="_w8FLvR_EZ2zur9MJwgX-12" style="edgeStyle=orthogonalEdgeStyle;rounded=0;orthogonalLoop=1;jettySize=auto;html=1;entryX=0.75;entryY=1;entryDx=0;entryDy=0;" edge="1" parent="1" source="_w8FLvR_EZ2zur9MJwgX-10" target="_w8FLvR_EZ2zur9MJwgX-3">
          <mxGeometry relative="1" as="geometry" />
        </mxCell>
        <mxCell id="_w8FLvR_EZ2zur9MJwgX-10" value="b" style="text;html=1;align=center;verticalAlign=middle;whiteSpace=wrap;rounded=0;" vertex="1" parent="1">
          <mxGeometry x="330" y="1240" width="60" height="30" as="geometry" />
        </mxCell>
        <mxCell id="_w8FLvR_EZ2zur9MJwgX-11" style="edgeStyle=orthogonalEdgeStyle;rounded=0;orthogonalLoop=1;jettySize=auto;html=1;entryX=0.186;entryY=1.039;entryDx=0;entryDy=0;entryPerimeter=0;" edge="1" parent="1" source="_w8FLvR_EZ2zur9MJwgX-8" target="_w8FLvR_EZ2zur9MJwgX-1">
          <mxGeometry relative="1" as="geometry" />
        </mxCell>
        <mxCell id="_w8FLvR_EZ2zur9MJwgX-36" style="edgeStyle=orthogonalEdgeStyle;rounded=0;orthogonalLoop=1;jettySize=auto;html=1;entryX=-0.001;entryY=0.053;entryDx=0;entryDy=0;entryPerimeter=0;" edge="1" parent="1" source="_w8FLvR_EZ2zur9MJwgX-13" target="_w8FLvR_EZ2zur9MJwgX-27">
          <mxGeometry relative="1" as="geometry" />
        </mxCell>
        <mxCell id="_w8FLvR_EZ2zur9MJwgX-13" value="" style="shape=trapezoid;perimeter=trapezoidPerimeter;whiteSpace=wrap;html=1;fixedSize=1;rotation=-180;" vertex="1" parent="1">
          <mxGeometry x="540" y="870" width="120" height="50" as="geometry" />
        </mxCell>
        <mxCell id="_w8FLvR_EZ2zur9MJwgX-14" value="MUX" style="text;html=1;align=center;verticalAlign=middle;whiteSpace=wrap;rounded=0;" vertex="1" parent="1">
          <mxGeometry x="570" y="875" width="60" height="30" as="geometry" />
        </mxCell>
        <mxCell id="_w8FLvR_EZ2zur9MJwgX-15" value="" style="shape=offPageConnector;whiteSpace=wrap;html=1;rotation=-90;fillColor=#f8cecc;strokeColor=#b85450;" vertex="1" parent="1">
          <mxGeometry x="380" y="830" width="40" height="60" as="geometry" />
        </mxCell>
        <mxCell id="_w8FLvR_EZ2zur9MJwgX-17" style="edgeStyle=orthogonalEdgeStyle;rounded=0;orthogonalLoop=1;jettySize=auto;html=1;entryX=1;entryY=0.5;entryDx=0;entryDy=0;" edge="1" parent="1" source="_w8FLvR_EZ2zur9MJwgX-16" target="_w8FLvR_EZ2zur9MJwgX-13">
          <mxGeometry relative="1" as="geometry" />
        </mxCell>
        <mxCell id="_w8FLvR_EZ2zur9MJwgX-18" style="edgeStyle=orthogonalEdgeStyle;rounded=0;orthogonalLoop=1;jettySize=auto;html=1;entryX=0;entryY=0.5;entryDx=0;entryDy=0;" edge="1" parent="1" source="_w8FLvR_EZ2zur9MJwgX-16" target="_w8FLvR_EZ2zur9MJwgX-1">
          <mxGeometry relative="1" as="geometry" />
        </mxCell>
        <mxCell id="_w8FLvR_EZ2zur9MJwgX-16" value="test_enabled" style="text;html=1;align=center;verticalAlign=middle;whiteSpace=wrap;rounded=0;" vertex="1" parent="1">
          <mxGeometry x="360" y="845" width="60" height="30" as="geometry" />
        </mxCell>
        <mxCell id="_w8FLvR_EZ2zur9MJwgX-19" value="" style="shape=offPageConnector;whiteSpace=wrap;html=1;rotation=0;fillColor=#f8cecc;strokeColor=#b85450;" vertex="1" parent="1">
          <mxGeometry x="620" y="780" width="40" height="60" as="geometry" />
        </mxCell>
        <mxCell id="_w8FLvR_EZ2zur9MJwgX-20" value="start_deb" style="text;html=1;align=center;verticalAlign=middle;whiteSpace=wrap;rounded=0;" vertex="1" parent="1">
          <mxGeometry x="610" y="795" width="60" height="30" as="geometry" />
        </mxCell>
        <mxCell id="_w8FLvR_EZ2zur9MJwgX-22" value="" style="shape=offPageConnector;whiteSpace=wrap;html=1;rotation=0;fillColor=#f8cecc;strokeColor=#b85450;" vertex="1" parent="1">
          <mxGeometry x="560" y="780" width="40" height="60" as="geometry" />
        </mxCell>
        <mxCell id="_w8FLvR_EZ2zur9MJwgX-23" value="test_mode" style="text;html=1;align=center;verticalAlign=middle;whiteSpace=wrap;rounded=0;" vertex="1" parent="1">
          <mxGeometry x="550" y="795" width="60" height="30" as="geometry" />
        </mxCell>
        <mxCell id="_w8FLvR_EZ2zur9MJwgX-25" style="edgeStyle=orthogonalEdgeStyle;rounded=0;orthogonalLoop=1;jettySize=auto;html=1;exitX=0.5;exitY=1;exitDx=0;exitDy=0;entryX=0.191;entryY=1.05;entryDx=0;entryDy=0;entryPerimeter=0;" edge="1" parent="1" source="_w8FLvR_EZ2zur9MJwgX-19" target="_w8FLvR_EZ2zur9MJwgX-13">
          <mxGeometry relative="1" as="geometry" />
        </mxCell>
        <mxCell id="_w8FLvR_EZ2zur9MJwgX-26" style="edgeStyle=orthogonalEdgeStyle;rounded=0;orthogonalLoop=1;jettySize=auto;html=1;entryX=0.674;entryY=1.008;entryDx=0;entryDy=0;entryPerimeter=0;" edge="1" parent="1" source="_w8FLvR_EZ2zur9MJwgX-22" target="_w8FLvR_EZ2zur9MJwgX-13">
          <mxGeometry relative="1" as="geometry" />
        </mxCell>
        <mxCell id="_w8FLvR_EZ2zur9MJwgX-27" value="" style="rounded=0;whiteSpace=wrap;html=1;" vertex="1" parent="1">
          <mxGeometry x="540" y="990" width="270" height="250" as="geometry" />
        </mxCell>
        <mxCell id="_w8FLvR_EZ2zur9MJwgX-28" value="3*a + 2*cbrt(b)" style="text;html=1;align=center;verticalAlign=middle;whiteSpace=wrap;rounded=0;" vertex="1" parent="1">
          <mxGeometry x="630" y="960" width="100" height="30" as="geometry" />
        </mxCell>
        <mxCell id="_w8FLvR_EZ2zur9MJwgX-29" value="start&lt;span style=&quot;caret-color: rgba(0, 0, 0, 0); color: rgba(0, 0, 0, 0); font-family: monospace; font-size: 0px; text-align: start; white-space: nowrap;&quot;&gt;%3CmxGraphModel%3E%3Croot%3E%3CmxCell%20id%3D%220%22%2F%3E%3CmxCell%20id%3D%221%22%20parent%3D%220%22%2F%3E%3CmxCell%20id%3D%222%22%20value%3D%223*a%20%2B%202*cbrt(b)%22%20style%3D%22text%3Bhtml%3D1%3Balign%3Dcenter%3BverticalAlign%3Dmiddle%3BwhiteSpace%3Dwrap%3Brounded%3D0%3B%22%20vertex%3D%221%22%20parent%3D%221%22%3E%3CmxGeometry%20x%3D%22630%22%20y%3D%22960%22%20width%3D%22100%22%20height%3D%2230%22%20as%3D%22geometry%22%2F%3E%3C%2FmxCell%3E%3C%2Froot%3E%3C%2FmxGraphModel%3E&lt;/span&gt;" style="text;html=1;align=center;verticalAlign=middle;whiteSpace=wrap;rounded=0;" vertex="1" parent="1">
          <mxGeometry x="510" y="990" width="100" height="30" as="geometry" />
        </mxCell>
        <mxCell id="_w8FLvR_EZ2zur9MJwgX-30" value="a" style="text;html=1;align=center;verticalAlign=middle;whiteSpace=wrap;rounded=0;" vertex="1" parent="1">
          <mxGeometry x="510" y="1030" width="100" height="30" as="geometry" />
        </mxCell>
        <mxCell id="_w8FLvR_EZ2zur9MJwgX-31" value="b" style="text;html=1;align=center;verticalAlign=middle;whiteSpace=wrap;rounded=0;" vertex="1" parent="1">
          <mxGeometry x="550" y="1195" width="100" height="30" as="geometry" />
        </mxCell>
        <mxCell id="_w8FLvR_EZ2zur9MJwgX-34" value="" style="endArrow=classicThin;html=1;rounded=0;exitX=1;exitY=0.75;exitDx=0;exitDy=0;endFill=1;entryX=0.005;entryY=0.226;entryDx=0;entryDy=0;entryPerimeter=0;" edge="1" parent="1" source="_w8FLvR_EZ2zur9MJwgX-2" target="_w8FLvR_EZ2zur9MJwgX-27">
          <mxGeometry width="50" height="50" relative="1" as="geometry">
            <mxPoint x="510" y="950" as="sourcePoint" />
            <mxPoint x="540" y="1036" as="targetPoint" />
          </mxGeometry>
        </mxCell>
        <mxCell id="_w8FLvR_EZ2zur9MJwgX-37" value="clk" style="text;html=1;align=center;verticalAlign=middle;whiteSpace=wrap;rounded=0;" vertex="1" parent="1">
          <mxGeometry x="730" y="990" width="60" height="30" as="geometry" />
        </mxCell>
        <mxCell id="_w8FLvR_EZ2zur9MJwgX-38" value="" style="shape=offPageConnector;whiteSpace=wrap;html=1;rotation=0;fillColor=#f8cecc;strokeColor=#b85450;" vertex="1" parent="1">
          <mxGeometry x="720" y="845" width="40" height="60" as="geometry" />
        </mxCell>
        <mxCell id="_w8FLvR_EZ2zur9MJwgX-39" value="clk" style="text;html=1;align=center;verticalAlign=middle;whiteSpace=wrap;rounded=0;" vertex="1" parent="1">
          <mxGeometry x="710" y="860" width="60" height="30" as="geometry" />
        </mxCell>
        <mxCell id="_w8FLvR_EZ2zur9MJwgX-40" style="edgeStyle=orthogonalEdgeStyle;rounded=0;orthogonalLoop=1;jettySize=auto;html=1;entryX=0.617;entryY=0.067;entryDx=0;entryDy=0;entryPerimeter=0;exitX=0.5;exitY=1;exitDx=0;exitDy=0;" edge="1" parent="1" source="_w8FLvR_EZ2zur9MJwgX-38" target="_w8FLvR_EZ2zur9MJwgX-37">
          <mxGeometry relative="1" as="geometry" />
        </mxCell>
        <mxCell id="zREDfURGIOXbGiEf3ayB-1" value="" style="shape=offPageConnector;whiteSpace=wrap;html=1;rotation=-90;fillColor=#f8cecc;strokeColor=#b85450;" vertex="1" parent="1">
          <mxGeometry x="570" y="1285" width="40" height="60" as="geometry" />
        </mxCell>
        <mxCell id="zREDfURGIOXbGiEf3ayB-3" style="edgeStyle=orthogonalEdgeStyle;rounded=0;orthogonalLoop=1;jettySize=auto;html=1;entryX=0.5;entryY=1;entryDx=0;entryDy=0;exitX=1;exitY=0.5;exitDx=0;exitDy=0;" edge="1" parent="1" source="zREDfURGIOXbGiEf3ayB-2" target="_w8FLvR_EZ2zur9MJwgX-27">
          <mxGeometry relative="1" as="geometry" />
        </mxCell>
        <mxCell id="zREDfURGIOXbGiEf3ayB-2" value="func_rst" style="text;html=1;align=center;verticalAlign=middle;whiteSpace=wrap;rounded=0;" vertex="1" parent="1">
          <mxGeometry x="560" y="1300" width="60" height="30" as="geometry" />
        </mxCell>
        <mxCell id="zREDfURGIOXbGiEf3ayB-8" style="edgeStyle=orthogonalEdgeStyle;rounded=0;orthogonalLoop=1;jettySize=auto;html=1;entryX=0;entryY=0.5;entryDx=0;entryDy=0;" edge="1" parent="1" source="zREDfURGIOXbGiEf3ayB-4" target="zREDfURGIOXbGiEf3ayB-7">
          <mxGeometry relative="1" as="geometry" />
        </mxCell>
        <mxCell id="zREDfURGIOXbGiEf3ayB-4" value="busy_o" style="text;html=1;align=center;verticalAlign=middle;whiteSpace=wrap;rounded=0;" vertex="1" parent="1">
          <mxGeometry x="750" y="1050" width="60" height="30" as="geometry" />
        </mxCell>
        <mxCell id="zREDfURGIOXbGiEf3ayB-11" style="edgeStyle=orthogonalEdgeStyle;rounded=0;orthogonalLoop=1;jettySize=auto;html=1;" edge="1" parent="1" source="zREDfURGIOXbGiEf3ayB-5" target="zREDfURGIOXbGiEf3ayB-9">
          <mxGeometry relative="1" as="geometry" />
        </mxCell>
        <mxCell id="zREDfURGIOXbGiEf3ayB-14" style="edgeStyle=orthogonalEdgeStyle;rounded=0;orthogonalLoop=1;jettySize=auto;html=1;entryX=0;entryY=0.25;entryDx=0;entryDy=0;" edge="1" parent="1" source="zREDfURGIOXbGiEf3ayB-5" target="zREDfURGIOXbGiEf3ayB-13">
          <mxGeometry relative="1" as="geometry" />
        </mxCell>
        <mxCell id="zREDfURGIOXbGiEf3ayB-15" style="edgeStyle=orthogonalEdgeStyle;rounded=0;orthogonalLoop=1;jettySize=auto;html=1;entryX=0.75;entryY=1;entryDx=0;entryDy=0;" edge="1" parent="1" source="zREDfURGIOXbGiEf3ayB-5" target="zREDfURGIOXbGiEf3ayB-12">
          <mxGeometry relative="1" as="geometry" />
        </mxCell>
        <mxCell id="zREDfURGIOXbGiEf3ayB-5" value="res[15:0]" style="text;html=1;align=center;verticalAlign=middle;whiteSpace=wrap;rounded=0;" vertex="1" parent="1">
          <mxGeometry x="750" y="1120" width="60" height="30" as="geometry" />
        </mxCell>
        <mxCell id="zREDfURGIOXbGiEf3ayB-6" value="" style="shape=offPageConnector;whiteSpace=wrap;html=1;rotation=-90;fillColor=#fff2cc;strokeColor=#d6b656;" vertex="1" parent="1">
          <mxGeometry x="950" y="1035" width="40" height="60" as="geometry" />
        </mxCell>
        <mxCell id="zREDfURGIOXbGiEf3ayB-7" value="func_busy" style="text;html=1;align=center;verticalAlign=middle;whiteSpace=wrap;rounded=0;" vertex="1" parent="1">
          <mxGeometry x="940" y="1050" width="60" height="30" as="geometry" />
        </mxCell>
        <mxCell id="zREDfURGIOXbGiEf3ayB-9" value="" style="shape=offPageConnector;whiteSpace=wrap;html=1;rotation=-90;fillColor=#fff2cc;strokeColor=#d6b656;" vertex="1" parent="1">
          <mxGeometry x="950" y="1105" width="40" height="60" as="geometry" />
        </mxCell>
        <mxCell id="zREDfURGIOXbGiEf3ayB-10" value="function_res" style="text;html=1;align=center;verticalAlign=middle;whiteSpace=wrap;rounded=0;" vertex="1" parent="1">
          <mxGeometry x="940" y="1120" width="60" height="30" as="geometry" />
        </mxCell>
        <mxCell id="zREDfURGIOXbGiEf3ayB-12" value="" style="shape=trapezoid;perimeter=trapezoidPerimeter;whiteSpace=wrap;html=1;fixedSize=1;rotation=90;" vertex="1" parent="1">
          <mxGeometry x="890" y="1230" width="120" height="50" as="geometry" />
        </mxCell>
        <mxCell id="zREDfURGIOXbGiEf3ayB-18" style="edgeStyle=orthogonalEdgeStyle;rounded=0;orthogonalLoop=1;jettySize=auto;html=1;" edge="1" parent="1" source="zREDfURGIOXbGiEf3ayB-13">
          <mxGeometry relative="1" as="geometry">
            <mxPoint x="1020" y="1242.5" as="targetPoint" />
          </mxGeometry>
        </mxCell>
        <mxCell id="zREDfURGIOXbGiEf3ayB-13" value="MUX" style="text;html=1;align=center;verticalAlign=middle;whiteSpace=wrap;rounded=0;" vertex="1" parent="1">
          <mxGeometry x="920" y="1220" width="60" height="45" as="geometry" />
        </mxCell>
        <mxCell id="zREDfURGIOXbGiEf3ayB-16" value="15:0" style="text;html=1;align=center;verticalAlign=middle;whiteSpace=wrap;rounded=0;" vertex="1" parent="1">
          <mxGeometry x="870" y="1205" width="60" height="30" as="geometry" />
        </mxCell>
        <mxCell id="zREDfURGIOXbGiEf3ayB-17" value="7:0" style="text;html=1;align=center;verticalAlign=middle;whiteSpace=wrap;rounded=0;" vertex="1" parent="1">
          <mxGeometry x="870" y="1255" width="60" height="30" as="geometry" />
        </mxCell>
        <mxCell id="zREDfURGIOXbGiEf3ayB-19" value="" style="rounded=0;whiteSpace=wrap;html=1;" vertex="1" parent="1">
          <mxGeometry x="1020" y="1205" width="120" height="110" as="geometry" />
        </mxCell>
        <mxCell id="zREDfURGIOXbGiEf3ayB-20" value="CRC8" style="text;html=1;align=center;verticalAlign=middle;whiteSpace=wrap;rounded=0;" vertex="1" parent="1">
          <mxGeometry x="1050" y="1180" width="60" height="30" as="geometry" />
        </mxCell>
        <mxCell id="zREDfURGIOXbGiEf3ayB-22" value="data" style="text;html=1;align=center;verticalAlign=middle;whiteSpace=wrap;rounded=0;" vertex="1" parent="1">
          <mxGeometry x="970" y="1210" width="60" height="30" as="geometry" />
        </mxCell>
        <mxCell id="zREDfURGIOXbGiEf3ayB-29" style="edgeStyle=orthogonalEdgeStyle;rounded=0;orthogonalLoop=1;jettySize=auto;html=1;" edge="1" parent="1" source="zREDfURGIOXbGiEf3ayB-24">
          <mxGeometry relative="1" as="geometry">
            <mxPoint x="1250" y="1255" as="targetPoint" />
          </mxGeometry>
        </mxCell>
        <mxCell id="zREDfURGIOXbGiEf3ayB-38" style="edgeStyle=orthogonalEdgeStyle;rounded=0;orthogonalLoop=1;jettySize=auto;html=1;entryX=0;entryY=0.5;entryDx=0;entryDy=0;" edge="1" parent="1" source="zREDfURGIOXbGiEf3ayB-24" target="zREDfURGIOXbGiEf3ayB-35">
          <mxGeometry relative="1" as="geometry">
            <mxPoint x="1250" y="1550" as="targetPoint" />
            <Array as="points">
              <mxPoint x="1220" y="1255" />
              <mxPoint x="1220" y="1390" />
              <mxPoint x="1330" y="1390" />
              <mxPoint x="1330" y="1560" />
              <mxPoint x="1000" y="1560" />
              <mxPoint x="1000" y="1500" />
            </Array>
          </mxGeometry>
        </mxCell>
        <mxCell id="zREDfURGIOXbGiEf3ayB-24" value="res" style="text;html=1;align=center;verticalAlign=middle;whiteSpace=wrap;rounded=0;" vertex="1" parent="1">
          <mxGeometry x="1080" y="1240" width="60" height="30" as="geometry" />
        </mxCell>
        <mxCell id="zREDfURGIOXbGiEf3ayB-25" value="" style="shape=offPageConnector;whiteSpace=wrap;html=1;rotation=-90;fillColor=#f8cecc;strokeColor=#b85450;" vertex="1" parent="1">
          <mxGeometry x="990" y="1370" width="40" height="60" as="geometry" />
        </mxCell>
        <mxCell id="zREDfURGIOXbGiEf3ayB-28" style="edgeStyle=orthogonalEdgeStyle;rounded=0;orthogonalLoop=1;jettySize=auto;html=1;" edge="1" parent="1" source="zREDfURGIOXbGiEf3ayB-26">
          <mxGeometry relative="1" as="geometry">
            <mxPoint x="1080" y="1330" as="targetPoint" />
          </mxGeometry>
        </mxCell>
        <mxCell id="zREDfURGIOXbGiEf3ayB-26" value="func_rst" style="text;html=1;align=center;verticalAlign=middle;whiteSpace=wrap;rounded=0;" vertex="1" parent="1">
          <mxGeometry x="980" y="1385" width="60" height="30" as="geometry" />
        </mxCell>
        <mxCell id="zREDfURGIOXbGiEf3ayB-30" value="" style="shape=offPageConnector;whiteSpace=wrap;html=1;rotation=-90;fillColor=#fff2cc;strokeColor=#d6b656;" vertex="1" parent="1">
          <mxGeometry x="1260" y="1225" width="40" height="60" as="geometry" />
        </mxCell>
        <mxCell id="zREDfURGIOXbGiEf3ayB-31" value="res[7:0]" style="text;html=1;align=center;verticalAlign=middle;whiteSpace=wrap;rounded=0;" vertex="1" parent="1">
          <mxGeometry x="1250" y="1240" width="60" height="30" as="geometry" />
        </mxCell>
        <mxCell id="zREDfURGIOXbGiEf3ayB-43" style="edgeStyle=orthogonalEdgeStyle;rounded=0;orthogonalLoop=1;jettySize=auto;html=1;entryX=-0.031;entryY=0.589;entryDx=0;entryDy=0;entryPerimeter=0;" edge="1" parent="1" source="zREDfURGIOXbGiEf3ayB-32" target="zREDfURGIOXbGiEf3ayB-19">
          <mxGeometry relative="1" as="geometry">
            <mxPoint x="1000" y="1270" as="targetPoint" />
            <Array as="points">
              <mxPoint x="1190" y="1480" />
              <mxPoint x="1190" y="1350" />
              <mxPoint x="1000" y="1350" />
              <mxPoint x="1000" y="1270" />
            </Array>
          </mxGeometry>
        </mxCell>
        <mxCell id="zREDfURGIOXbGiEf3ayB-32" value="" style="whiteSpace=wrap;html=1;aspect=fixed;fillColor=#d5e8d4;strokeColor=#82b366;" vertex="1" parent="1">
          <mxGeometry x="1082.5" y="1445" width="80" height="80" as="geometry" />
        </mxCell>
        <mxCell id="zREDfURGIOXbGiEf3ayB-33" value="" style="triangle;whiteSpace=wrap;html=1;fillColor=#d5e8d4;strokeColor=#82b366;" vertex="1" parent="1">
          <mxGeometry x="1082.5" y="1455" width="20" height="30" as="geometry" />
        </mxCell>
        <mxCell id="zREDfURGIOXbGiEf3ayB-34" value="C" style="text;html=1;align=center;verticalAlign=middle;whiteSpace=wrap;rounded=0;" vertex="1" parent="1">
          <mxGeometry x="1070" y="1455" width="45" height="30" as="geometry" />
        </mxCell>
        <mxCell id="zREDfURGIOXbGiEf3ayB-35" value="D" style="text;html=1;align=center;verticalAlign=middle;whiteSpace=wrap;rounded=0;" vertex="1" parent="1">
          <mxGeometry x="1082.5" y="1485" width="20" height="30" as="geometry" />
        </mxCell>
        <mxCell id="zREDfURGIOXbGiEf3ayB-36" value="Q" style="text;html=1;align=center;verticalAlign=middle;whiteSpace=wrap;rounded=0;" vertex="1" parent="1">
          <mxGeometry x="1142.5" y="1470" width="10" height="35" as="geometry" />
        </mxCell>
        <mxCell id="zREDfURGIOXbGiEf3ayB-37" value="rst_delay_reg" style="text;html=1;align=center;verticalAlign=middle;whiteSpace=wrap;rounded=0;" vertex="1" parent="1">
          <mxGeometry x="1092.5" y="1415" width="60" height="30" as="geometry" />
        </mxCell>
        <mxCell id="zREDfURGIOXbGiEf3ayB-39" value="" style="shape=offPageConnector;whiteSpace=wrap;html=1;rotation=-90;fillColor=#f8cecc;strokeColor=#b85450;" vertex="1" parent="1">
          <mxGeometry x="930" y="1440" width="40" height="60" as="geometry" />
        </mxCell>
        <mxCell id="zREDfURGIOXbGiEf3ayB-41" style="edgeStyle=orthogonalEdgeStyle;rounded=0;orthogonalLoop=1;jettySize=auto;html=1;" edge="1" parent="1" source="zREDfURGIOXbGiEf3ayB-40" target="zREDfURGIOXbGiEf3ayB-34">
          <mxGeometry relative="1" as="geometry" />
        </mxCell>
        <mxCell id="zREDfURGIOXbGiEf3ayB-40" value="clk" style="text;html=1;align=center;verticalAlign=middle;whiteSpace=wrap;rounded=0;" vertex="1" parent="1">
          <mxGeometry x="920" y="1455" width="60" height="30" as="geometry" />
        </mxCell>
      </root>
    </mxGraphModel>
  </diagram>
</mxfile>
